  0
SECTION
  2
HEADER
  9
$ACADVER
  1
AC1009
  9
$INSBASE
 10
0.0
 20
0.0
 30
0.0
  9
$EXTMIN
 10
7.8644388471011686
 20
3.5131231758796981
 30
0.0
  9
$EXTMAX
 10
376.5293388471046114
 20
139.1682951917902074
 30
0.0
  9
$LIMMIN
 10
0.0
 20
0.0
  9
$LIMMAX
 10
12.0
 20
9.0
  9
$ORTHOMODE
 70
     0
  9
$REGENMODE
 70
     1
  9
$FILLMODE
 70
     1
  9
$QTEXTMODE
 70
     0
  9
$MIRRTEXT
 70
     0
  9
$DRAGMODE
 70
     2
  9
$LTSCALE
 40
1.0
  9
$OSMODE
 70
  2047
  9
$ATTMODE
 70
     1
  9
$TEXTSIZE
 40
0.2
  9
$TRACEWID
 40
0.05
  9
$TEXTSTYLE
  7
STANDARD
  9
$CLAYER
  8
0
  9
$CELTYPE
  6
BYLAYER
  9
$CECOLOR
 62
   256
  9
$DIMSCALE
 40
1.0
  9
$DIMASZ
 40
0.18
  9
$DIMEXO
 40
0.0625
  9
$DIMDLI
 40
0.38
  9
$DIMRND
 40
0.0
  9
$DIMDLE
 40
0.0
  9
$DIMEXE
 40
0.18
  9
$DIMTP
 40
0.0
  9
$DIMTM
 40
0.0
  9
$DIMTXT
 40
0.18
  9
$DIMCEN
 40
0.09
  9
$DIMTSZ
 40
0.0
  9
$DIMTOL
 70
     0
  9
$DIMLIM
 70
     0
  9
$DIMTIH
 70
     1
  9
$DIMTOH
 70
     1
  9
$DIMSE1
 70
     0
  9
$DIMSE2
 70
     0
  9
$DIMTAD
 70
     0
  9
$DIMZIN
 70
     0
  9
$DIMBLK
  1

  9
$DIMASO
 70
     1
  9
$DIMSHO
 70
     1
  9
$DIMPOST
  1

  9
$DIMAPOST
  1

  9
$DIMALT
 70
     0
  9
$DIMALTD
 70
     2
  9
$DIMALTF
 40
25.3999999999999986
  9
$DIMLFAC
 40
1.0
  9
$DIMTOFL
 70
     0
  9
$DIMTVP
 40
0.0
  9
$DIMTIX
 70
     0
  9
$DIMSOXD
 70
     0
  9
$DIMSAH
 70
     0
  9
$DIMBLK1
  1

  9
$DIMBLK2
  1

  9
$DIMSTYLE
  2
STANDARD
  9
$DIMCLRD
 70
     0
  9
$DIMCLRE
 70
     0
  9
$DIMCLRT
 70
     0
  9
$DIMTFAC
 40
1.0
  9
$DIMGAP
 40
0.09
  9
$LUNITS
 70
     2
  9
$LUPREC
 70
     4
  9
$SKETCHINC
 40
0.1
  9
$FILLETRAD
 40
0.0
  9
$AUNITS
 70
     0
  9
$AUPREC
 70
     0
  9
$MENU
  1
.
  9
$ELEVATION
 40
0.0
  9
$PELEVATION
 40
0.0
  9
$THICKNESS
 40
0.0
  9
$LIMCHECK
 70
     0
  9
$BLIPMODE
 70
     0
  9
$CHAMFERA
 40
0.0
  9
$CHAMFERB
 40
0.0
  9
$SKPOLY
 70
     0
  9
$TDCREATE
 40
2459280.4510648148134351
  9
$TDUPDATE
 40
2459280.5060879630036652
  9
$TDINDWG
 40
0.0550231481
  9
$TDUSRTIMER
 40
0.0550231481
  9
$USRTIMER
 70
     1
  9
$ANGBASE
 50
0.0
  9
$ANGDIR
 70
     0
  9
$PDMODE
 70
     0
  9
$PDSIZE
 40
0.0
  9
$PLINEWID
 40
0.0
  9
$COORDS
 70
     1
  9
$SPLFRAME
 70
     0
  9
$SPLINETYPE
 70
     6
  9
$SPLINESEGS
 70
     8
  9
$ATTDIA
 70
     1
  9
$ATTREQ
 70
     1
  9
$HANDLING
 70
     1
  9
$HANDSEED
  5
104D
  9
$SURFTAB1
 70
     6
  9
$SURFTAB2
 70
     6
  9
$SURFTYPE
 70
     6
  9
$SURFU
 70
     6
  9
$SURFV
 70
     6
  9
$UCSNAME
  2

  9
$UCSORG
 10
0.0
 20
0.0
 30
0.0
  9
$UCSXDIR
 10
1.0
 20
0.0
 30
0.0
  9
$UCSYDIR
 10
0.0
 20
1.0
 30
0.0
  9
$PUCSNAME
  2

  9
$PUCSORG
 10
0.0
 20
0.0
 30
0.0
  9
$PUCSXDIR
 10
1.0
 20
0.0
 30
0.0
  9
$PUCSYDIR
 10
0.0
 20
1.0
 30
0.0
  9
$USERI1
 70
     0
  9
$USERI2
 70
     0
  9
$USERI3
 70
     0
  9
$USERI4
 70
     0
  9
$USERI5
 70
     0
  9
$USERR1
 40
0.0
  9
$USERR2
 40
0.0
  9
$USERR3
 40
0.0
  9
$USERR4
 40
0.0
  9
$USERR5
 40
0.0
  9
$WORLDVIEW
 70
     1
  9
$SHADEDGE
 70
     3
  9
$SHADEDIF
 70
    70
  9
$TILEMODE
 70
     1
  9
$MAXACTVP
 70
    64
  9
$PLIMCHECK
 70
     0
  9
$PEXTMIN
 10
0.0
 20
0.0
 30
0.0
  9
$PEXTMAX
 10
0.0
 20
0.0
 30
0.0
  9
$PLIMMIN
 10
0.0
 20
0.0
  9
$PLIMMAX
 10
12.0
 20
9.0
  9
$UNITMODE
 70
     0
  9
$VISRETAIN
 70
     1
  9
$PLINEGEN
 70
     0
  9
$PSLTSCALE
 70
     1
  0
ENDSEC
  0
SECTION
  2
TABLES
  0
TABLE
  2
VPORT
 70
     1
  0
VPORT
  2
*ACTIVE
 70
     0
 10
0.0
 20
0.0
 11
1.0
 21
1.0
 12
165.125182961399986
 22
106.1275129545318947
 13
0.0
 23
0.0
 14
0.5
 24
0.5
 15
0.5
 25
0.5
 16
0.0
 26
0.0
 36
1.0
 17
0.0
 27
0.0
 37
0.0
 40
400.3817504341776043
 41
1.7711111111111111
 42
50.0
 43
0.0
 44
0.0
 50
0.0
 51
0.0
 71
     0
 72
  1000
 73
     1
 74
     3
 75
     0
 76
     1
 77
     0
 78
     0
  0
ENDTAB
  0
TABLE
  2
LTYPE
 70
     2
  0
LTYPE
  2
CONTINUOUS
 70
     0
  3
Solid line
 72
    65
 73
     0
 40
0.0
  0
ENDTAB
  0
TABLE
  2
LAYER
 70
     2
  0
LAYER
  2
0
 70
     0
 62
     7
  6
CONTINUOUS
  0
LAYER
  2
BLACK
 70
     0
 62
     7
  6
CONTINUOUS
  0
ENDTAB
  0
TABLE
  2
STYLE
 70
     2
  0
STYLE
  2
STANDARD
 70
     0
 40
0.0
 41
1.0
 50
0.0
 71
     0
 42
0.2
  3
txt
  4

  0
STYLE
  2
ANNOTATIVE
 70
     0
 40
0.0
 41
1.0
 50
0.0
 71
     0
 42
0.2
  3
txt
  4

  0
ENDTAB
  0
TABLE
  2
VIEW
 70
     1
  0
ENDTAB
  0
TABLE
  2
UCS
 70
     0
  0
ENDTAB
  0
TABLE
  2
APPID
 70
     8
  0
APPID
  2
ACAD
 70
     0
  0
APPID
  2
ACADANNOPO
 70
     0
  0
APPID
  2
ACADANNOTATIVE
 70
     0
  0
APPID
  2
ACAD_DSTYLE_DIMJAG
 70
     0
  0
APPID
  2
ACAD_DSTYLE_DIMTALN
 70
     0
  0
APPID
  2
ACAD_MLEADERVER
 70
     0
  0
APPID
  2
ACAD_NAV_VCDISPLAY
 70
     0
  0
APPID
  2
ACAD_EXEMPT_FROM_CAD_STANDARDS
 70
     0
  0
ENDTAB
  0
TABLE
  2
DIMSTYLE
 70
     3
  0
DIMSTYLE
  2
STANDARD
 70
     0
  3

  4

  5

  6

  7

 40
1.0
 41
0.18
 42
0.0625
 43
0.38
 44
0.18
 45
0.0
 46
0.0
 47
0.0
 48
0.0
140
0.18
141
0.09
142
0.0
143
25.3999999999999986
144
1.0
145
0.0
146
1.0
147
0.09
 71
     0
 72
     0
 73
     1
 74
     1
 75
     0
 76
     0
 77
     0
 78
     0
170
     0
171
     2
172
     0
173
     0
174
     0
175
     0
176
     0
177
     0
178
     0
  0
DIMSTYLE
  2
ANNOTATIVE
 70
     0
  3

  4

  5

  6

  7

 40
0.0
 41
0.18
 42
0.0625
 43
0.38
 44
0.18
 45
0.0
 46
0.0
 47
0.0
 48
0.0
140
0.18
141
0.09
142
0.0
143
25.3999999999999986
144
1.0
145
0.0
146
1.0
147
0.09
 71
     0
 72
     0
 73
     1
 74
     1
 75
     0
 76
     0
 77
     0
 78
     0
170
     0
171
     2
172
     0
173
     0
174
     0
175
     0
176
     0
177
     0
178
     0
  0
ENDTAB
  0
ENDSEC
  0
SECTION
  2
BLOCKS
  0
BLOCK
  8
0
  2
$MODEL_SPACE
 70
     0
 10
0.0
 20
0.0
 30
0.0
  3
$MODEL_SPACE
  1

  0
ENDBLK
  5
21
  8
0
  0
BLOCK
 67
     1
  8
0
  2
$PAPER_SPACE
 70
     0
 10
0.0
 20
0.0
 30
0.0
  3
$PAPER_SPACE
  1

  0
ENDBLK
  5
5B
 67
     1
  8
0
  0
ENDSEC
  0
SECTION
  2
ENTITIES
  0
POLYLINE
  5
3DC
  8
0
 66
     1
 10
0.0
 20
0.0
 30
0.0
 70
     1
  0
VERTEX
  5
E47
  8
0
 10
35.6776888471004128
 20
126.1432951917886953
 30
0.0
 42
0.4142135623730951
  0
VERTEX
  5
E48
  8
0
 10
35.1776888471004128
 20
125.6432951917887948
 30
0.0
  0
VERTEX
  5
E49
  8
0
 10
35.1776888471004128
 20
112.6432951917886953
 30
0.0
 42
0.4142135623730951
  0
VERTEX
  5
E4A
  8
0
 10
35.6776888471004128
 20
112.1432951917887948
 30
0.0
  0
VERTEX
  5
E4B
  8
0
 10
48.6776888471004128
 20
112.1432951917887948
 30
0.0
 42
0.4142135623730951
  0
VERTEX
  5
E4C
  8
0
 10
49.1776888471004128
 20
112.6432951917886953
 30
0.0
  0
VERTEX
  5
E4D
  8
0
 10
49.1776888471004128
 20
125.6432951917887948
 30
0.0
 42
0.4142135623730951
  0
VERTEX
  5
E4E
  8
0
 10
48.6776888471004128
 20
126.1432951917886953
 30
0.0
  0
SEQEND
  5
E4F
  8
0
  0
ARC
  5
3E5
  8
0
 10
84.1783318470998267
 20
53.9644871917918465
 30
0.0
 40
0.5
 50
168.0000000000352998
 51
257.9999999998314024
  0
ARC
  5
3E6
  8
0
 10
96.8942508471018442
 20
51.2616351917896935
 30
0.0
 40
0.5
 50
257.9999999998314024
 51
348.0000000000352998
  0
ARC
  5
3E7
  8
0
 10
99.5971028471040256
 20
63.9775541917917181
 30
0.0
 40
0.5
 50
348.0000000000352998
 51
77.9999999998314308
  0
ARC
  5
3E8
  8
0
 10
86.8811838471019939
 20
66.6804061917902402
 30
0.0
 40
0.5
 50
77.9999999998314308
 51
168.0000000000352998
  0
LINE
  5
3E9
  8
0
 10
84.0743758471007965
 20
53.4754131917908708
 30
0.0
 11
96.7902948471028424
 21
50.7725611917886965
 31
0.0
  0
LINE
  5
3EA
  8
0
 10
99.7010578471027031
 20
64.466627191788703
 30
0.0
 11
86.9851398471009958
 21
67.1694791917908844
 31
0.0
  0
LINE
  5
3EB
  8
0
 10
97.3833238470988505
 20
51.1576791917906704
 30
0.0
 11
100.0861758471010035
 21
63.873598191789057
 31
0.0
  0
LINE
  5
3EC
  8
0
 10
86.3921098471046349
 20
66.7843611917889177
 30
0.0
 11
83.6892578471024677
 21
54.0684431917908697
 31
0.0
  0
ARC
  5
3ED
  8
0
 10
102.8120438471024016
 20
50.0037691917897575
 30
0.0
 40
0.5
 50
168.0000000000352998
 51
257.9999999998314024
  0
ARC
  5
3EE
  8
0
 10
115.5279618471039953
 20
47.3009171917912425
 30
0.0
 40
0.5
 50
257.9999999998314024
 51
348.0000000000352998
  0
ARC
  5
3EF
  8
0
 10
118.2308138470989007
 20
60.0168361917896291
 30
0.0
 40
0.5
 50
348.0000000000352998
 51
77.9999999998314308
  0
ARC
  5
3F0
  8
0
 10
105.5148958471044978
 20
62.7196881917917892
 30
0.0
 40
0.5
 50
77.9999999998314308
 51
168.0000000000352998
  0
LINE
  5
3F1
  8
0
 10
102.7080878471033003
 20
49.5146951917887819
 30
0.0
 11
115.4240068470980987
 21
46.8118431917902527
 31
0.0
  0
LINE
  5
3F2
  8
0
 10
118.3347698470980021
 20
60.5059091917902734
 30
0.0
 11
105.6188508471032037
 21
63.2087611917888026
 31
0.0
  0
LINE
  5
3F3
  8
0
 10
116.0170358471013969
 20
47.1969611917885814
 30
0.0
 11
118.7198878471036068
 21
59.9128801917906131
 31
0.0
  0
LINE
  5
3F4
  8
0
 10
105.0258218470999054
 20
62.8236431917904667
 30
0.0
 11
102.3229698470976956
 21
50.1077251917887807
 31
0.0
  0
ARC
  5
3F5
  8
0
 10
121.4457548471045953
 20
46.0430511917913066
 30
0.0
 40
0.5
 50
168.0000000000352998
 51
257.9999999998314024
  0
ARC
  5
3F6
  8
0
 10
134.1616738470993084
 20
43.3401991917891394
 30
0.0
 40
0.5
 50
257.9999999998314024
 51
348.0000000000352998
  0
ARC
  5
3F7
  8
0
 10
136.864525847101504
 20
56.0561181917911711
 30
0.0
 40
0.5
 50
348.0000000000352998
 51
77.9999999998314308
  0
ARC
  5
3F8
  8
0
 10
124.1486068470995008
 20
58.7589701917897074
 30
0.0
 40
0.5
 50
77.9999999998314308
 51
168.0000000000352998
  0
LINE
  5
3F9
  8
0
 10
121.3417998470985992
 20
45.5539771917903167
 30
0.0
 11
134.0577178471002924
 21
42.8511251917918017
 31
0.0
  0
LINE
  5
3FA
  8
0
 10
136.9684818471004917
 20
56.545192191788523
 30
0.0
 11
124.2525628470985026
 21
59.2480441917906901
 31
0.0
  0
LINE
  5
3FB
  8
0
 10
134.6507478471039008
 20
43.2362431917901304
 30
0.0
 11
137.353599847098792
 21
55.952162191788517
 31
0.0
  0
LINE
  5
3FC
  8
0
 10
123.6595338471024945
 20
58.8629261917887234
 30
0.0
 11
120.9566818471002989
 21
46.1470071917903226
 31
0.0
  0
ARC
  5
3FD
  8
0
 10
140.079466847099809
 20
42.0823331917892176
 30
0.0
 40
0.5
 50
168.0000000000352998
 51
257.9999999998314024
  0
ARC
  5
3FE
  8
0
 10
152.7953858471018975
 20
39.3794811917907026
 30
0.0
 40
0.5
 50
257.9999999998314024
 51
348.0000000000352998
  0
ARC
  5
3FF
  8
0
 10
155.4982378471040079
 20
52.0954001917890892
 30
0.0
 40
0.5
 50
348.0000000000352998
 51
77.9999999998314308
  0
ARC
  5
400
  8
0
 10
142.7823188471020046
 20
54.7982521917912635
 30
0.0
 40
0.5
 50
77.9999999998314308
 51
168.0000000000352998
  0
LINE
  5
401
  8
0
 10
139.9755108471007929
 20
41.5932591917918728
 30
0.0
 11
152.6914298471029099
 21
38.8904071917897127
 31
0.0
  0
LINE
  5
402
  8
0
 10
155.6021938471029955
 20
52.584474191790072
 30
0.0
 11
142.8862748471009922
 21
55.2873261917886012
 31
0.0
  0
LINE
  5
403
  8
0
 10
153.2844598470992139
 20
39.2755251917916794
 30
0.0
 11
155.9873118471014095
 21
51.9914441917900731
 31
0.0
  0
LINE
  5
404
  8
0
 10
142.2932448471046882
 20
54.9022081917902725
 30
0.0
 11
139.5903928471024926
 21
42.1862891917918716
 31
0.0
  0
ARC
  5
405
  8
0
 10
82.5468288471029297
 20
34.8356841917886086
 30
0.0
 40
0.5
 50
168.0000000000352998
 51
257.9999999998314024
  0
ARC
  5
406
  8
0
 10
95.2627478470976854
 20
32.1328321917900794
 30
0.0
 40
0.5
 50
257.9999999998314024
 51
348.0000000000352998
  0
ARC
  5
407
  8
0
 10
97.9655998470998668
 20
44.8487511917884731
 30
0.0
 40
0.5
 50
348.0000000000352998
 51
77.9999999998314308
  0
ARC
  5
408
  8
0
 10
85.2496808470978067
 20
47.5516031917906403
 30
0.0
 40
0.5
 50
77.9999999998314308
 51
168.0000000000352998
  0
LINE
  5
409
  8
0
 10
82.4428728471039136
 20
34.3466111917916024
 30
0.0
 11
95.1587918470986551
 21
31.6437591917894387
 31
0.0
  0
LINE
  5
40A
  8
0
 10
98.0695548470985301
 20
45.3378251917894488
 30
0.0
 11
85.3536368471041129
 21
48.0406771917916231
 31
0.0
  0
LINE
  5
40B
  8
0
 10
95.7518208471019676
 20
32.0288771917914019
 30
0.0
 11
98.4546728471041348
 21
44.74479519178945
 31
0.0
  0
LINE
  5
40C
  8
0
 10
84.7606068471004761
 20
47.6555591917896493
 30
0.0
 11
82.0577548470982947
 21
34.9396401917912627
 31
0.0
  0
ARC
  5
40D
  8
0
 10
119.8142518471003939
 20
26.9142491917884108
 30
0.0
 40
0.5
 50
168.0000000000352998
 51
257.9999999998314024
  0
ARC
  5
40E
  8
0
 10
132.5301708471023971
 20
24.2113971917898816
 30
0.0
 40
0.5
 50
257.9999999998314024
 51
348.0000000000352998
  0
ARC
  5
40F
  8
0
 10
122.5171038471026037
 20
39.6301681917904389
 30
0.0
 40
0.5
 50
77.9999999998314308
 51
168.0000000000352998
  0
LINE
  5
410
  8
0
 10
135.3369788471036088
 20
37.4163891917889231
 30
0.0
 11
122.6210598471016056
 21
40.1192411917910832
 31
0.0
  0
LINE
  5
411
  8
0
 10
133.0192448470997988
 20
24.1074411917908584
 30
0.0
 11
135.7220968471019091
 21
36.8233601917892628
 31
0.0
  0
LINE
  5
412
  8
0
 10
122.0280308470982931
 20
39.7341231917891236
 30
0.0
 11
119.3251788471034018
 21
27.0182051917910613
 31
0.0
  0
ARC
  5
413
  8
0
 10
111.352730847103004
 20
27.6904601917887412
 30
0.0
 40
0.5
 50
168.0000000000352998
 51
257.9999999998314024
  0
ARC
  5
414
  8
0
 10
117.2216168470994972
 20
26.4429901917903116
 30
0.0
 40
0.5
 50
257.9999999998314024
 51
348.0000000000352998
  0
ARC
  5
415
  8
0
 10
120.1323808470996966
 20
40.1370561917903288
 30
0.0
 40
0.5
 50
348.0000000000352998
 51
348.1020649842408261
  0
LINE
  5
416
  8
0
 10
111.2487748471040021
 20
27.2013861917913893
 30
0.0
 11
117.1176608471004954
 21
25.9539161917893288
 31
0.0
  0
LINE
  5
417
  8
0
 10
113.7744208470984972
 20
41.4884821917914124
 30
0.0
 11
110.8636578470986933
 21
27.7944161917913917
 31
0.0
  0
ARC
  5
418
  8
0
 10
134.7069828471003063
 20
22.7263601917913185
 30
0.0
 40
0.5
 50
168.0000000000352998
 51
257.9999999998314024
  0
ARC
  5
419
  8
0
 10
140.5758688471042035
 20
21.4788901917892616
 30
0.0
 40
0.5
 50
257.9999999998314024
 51
348.0000000000352998
  0
LINE
  5
41A
  8
0
 10
134.6030278471016004
 20
22.2372871917906814
 30
0.0
 11
140.4719128470977978
 21
20.9898171917886103
 31
0.0
  0
LINE
  5
41B
  8
0
 10
141.0649428471014915
 20
21.3749341917902385
 30
0.0
 11
143.9757068471016908
 21
35.0690011917905977
 31
0.0
  0
ARC
  5
41C
  8
0
 10
79.561533847104343
 20
74.4007381917910209
 30
0.0
 40
0.5
 50
168.0000000000352998
 51
257.9999999998314024
  0
ARC
  5
41D
  8
0
 10
92.2774528470990845
 20
71.6978861917888537
 30
0.0
 40
0.5
 50
257.9999999998314024
 51
348.0000000000352998
  0
ARC
  5
41E
  8
0
 10
94.9803048471012659
 20
84.4138051917908854
 30
0.0
 40
0.5
 50
348.0000000000352998
 51
77.9999999998314308
  0
ARC
  5
41F
  8
0
 10
82.2643858470992342
 20
87.1166571917894146
 30
0.0
 40
0.5
 50
77.9999999998314308
 51
168.0000000000352998
  0
LINE
  5
420
  8
0
 10
79.4575778470980509
 20
73.9116641917900381
 30
0.0
 11
92.1734968471000826
 21
71.2088121917915089
 31
0.0
  0
LINE
  5
421
  8
0
 10
95.0842598470999434
 20
84.9028791917918539
 30
0.0
 11
82.3683418470982645
 21
87.6057311917903974
 31
0.0
  0
LINE
  5
422
  8
0
 10
92.7665258471033951
 20
71.5939301917898376
 30
0.0
 11
95.4693778470982721
 21
84.3098491917918551
 31
0.0
  0
LINE
  5
423
  8
0
 10
81.7753118471018752
 20
87.2206131917920686
 30
0.0
 11
79.0724598470997222
 21
74.5046941917900369
 31
0.0
  0
ARC
  5
424
  8
0
 10
98.1952458470996277
 20
70.4400201917889319
 30
0.0
 40
0.5
 50
168.0000000000352998
 51
257.9999999998314024
  0
ARC
  5
425
  8
0
 10
110.9111638471013066
 20
67.7371681917904027
 30
0.0
 40
0.5
 50
257.9999999998314024
 51
348.0000000000352998
  0
ARC
  5
426
  8
0
 10
113.6140158471035022
 20
80.4530871917887964
 30
0.0
 40
0.5
 50
348.0000000000352998
 51
77.9999999998314308
  0
ARC
  5
427
  8
0
 10
100.8980978471017949
 20
83.1559391917909636
 30
0.0
 40
0.5
 50
77.9999999998314308
 51
168.0000000000352998
  0
LINE
  5
428
  8
0
 10
98.0912898471006258
 20
69.9509461917915871
 30
0.0
 11
110.8072088471026007
 21
67.2480941917894199
 31
0.0
  0
LINE
  5
429
  8
0
 10
113.7179718471025041
 20
80.9421611917897792
 30
0.0
 11
101.0020528471004013
 21
83.6450131917919464
 31
0.0
  0
LINE
  5
42A
  8
0
 10
111.4002378470985946
 20
67.6332121917913867
 30
0.0
 11
114.1030898471008044
 21
80.3491311917897946
 31
0.0
  0
LINE
  5
42B
  8
0
 10
100.4090238471043932
 20
83.2598951917899797
 30
0.0
 11
97.7061718471022829
 21
70.543976191791586
 31
0.0
  0
ARC
  5
42C
  8
0
 10
116.828956847101793
 20
66.4793021917904809
 30
0.0
 40
0.5
 50
168.0000000000352998
 51
257.9999999998314024
  0
ARC
  5
42D
  8
0
 10
129.5448758471038957
 20
63.7764501917919588
 30
0.0
 40
0.5
 50
257.9999999998314024
 51
348.0000000000352998
  0
ARC
  5
42E
  8
0
 10
132.2477278470987017
 20
76.4923691917903454
 30
0.0
 40
0.5
 50
348.0000000000352998
 51
77.9999999998314308
  0
ARC
  5
42F
  8
0
 10
119.5318088471040028
 20
79.1952211917888746
 30
0.0
 40
0.5
 50
77.9999999998314308
 51
168.0000000000352998
  0
LINE
  5
430
  8
0
 10
116.7250018471031012
 20
65.9902291917898367
 30
0.0
 11
129.4409198470976037
 21
63.2873771917913075
 31
0.0
  0
LINE
  5
431
  8
0
 10
132.3516838470976893
 20
76.981443191791314
 30
0.0
 11
119.6357648471030046
 21
79.6842951917898574
 31
0.0
  0
LINE
  5
432
  8
0
 10
130.0339498471012121
 20
63.6724951917896433
 30
0.0
 11
132.7368018471034077
 21
76.3884131917913294
 31
0.0
  0
LINE
  5
433
  8
0
 10
119.0427358470997063
 20
79.2991771917915287
 30
0.0
 11
116.3398838470974965
 21
66.583258191789497
 31
0.0
  0
ARC
  5
434
  8
0
 10
135.4626688471043963
 20
62.51858419179203
 30
0.0
 40
0.5
 50
168.0000000000352998
 51
257.9999999998314024
  0
ARC
  5
435
  8
0
 10
148.1785878470990951
 20
59.8157321917898628
 30
0.0
 40
0.5
 50
257.9999999998314024
 51
348.0000000000352998
  0
ARC
  5
436
  8
0
 10
150.8814398471012908
 20
72.5316511917918945
 30
0.0
 40
0.5
 50
348.0000000000352998
 51
77.9999999998314308
  0
ARC
  5
437
  8
0
 10
138.1655208470992875
 20
75.2345031917904237
 30
0.0
 40
0.5
 50
77.9999999998314308
 51
168.0000000000352998
  0
LINE
  5
438
  8
0
 10
135.3587128470981042
 20
62.0295111917913928
 30
0.0
 11
148.0746318471001075
 21
59.3266591917892328
 31
0.0
  0
LINE
  5
439
  8
0
 10
150.9853958471003068
 20
73.0207251917892393
 30
0.0
 11
138.2694768470983036
 21
75.7235771917914064
 31
0.0
  0
LINE
  5
43A
  8
0
 10
148.6676618471038012
 20
59.7117771917911924
 30
0.0
 11
151.3705138470986071
 21
72.4276951917892404
 31
0.0
  0
LINE
  5
43B
  8
0
 10
137.6764468471018859
 20
75.3384591917894255
 30
0.0
 11
134.9735948470998039
 21
62.6225401917910531
 31
0.0
  0
ARC
  5
43C
  8
0
 10
79.6031618471033795
 20
93.8468091917895038
 30
0.0
 40
0.5
 50
168.0000000000352998
 51
257.9999999998314024
  0
ARC
  5
43D
  8
0
 10
92.3190808470981352
 20
91.1439571917909745
 30
0.0
 40
0.5
 50
257.9999999998314024
 51
348.0000000000352998
  0
ARC
  5
43E
  8
0
 10
95.0219328471002882
 20
103.8598751917890013
 30
0.0
 40
0.5
 50
348.0000000000352998
 51
77.9999999998314308
  0
ARC
  5
43F
  8
0
 10
82.3060138470982565
 20
106.5627271917911969
 30
0.0
 40
0.5
 50
77.9999999998314308
 51
168.0000000000352998
  0
LINE
  5
440
  8
0
 10
79.4992058471043634
 20
93.357735191788521
 30
0.0
 11
92.215124847099105
 21
90.6548831917899918
 31
0.0
  0
LINE
  5
441
  8
0
 10
95.1258878470989657
 20
104.3489491917899983
 30
0.0
 11
82.4099698471045627
 21
107.0518011917884991
 31
0.0
  0
LINE
  5
442
  8
0
 10
92.8081538471024174
 20
91.0400011917919443
 30
0.0
 11
95.5110058471045846
 21
103.7559201917902953
 31
0.0
  0
LINE
  5
443
  8
0
 10
81.8169398471009259
 20
106.6666831917901987
 30
0.0
 11
79.1140878470987587
 21
93.950764191791805
 31
0.0
  0
ARC
  5
444
  8
0
 10
98.2368738470986642
 20
89.8860911917910528
 30
0.0
 40
0.5
 50
168.0000000000352998
 51
257.9999999998314024
  0
ARC
  5
445
  8
0
 10
110.9527918471003005
 20
87.1832391917888856
 30
0.0
 40
0.5
 50
257.9999999998314024
 51
348.0000000000352998
  0
ARC
  5
446
  8
0
 10
113.6556438471024961
 20
99.8991571917905929
 30
0.0
 40
0.5
 50
348.0000000000352998
 51
77.9999999998314308
  0
ARC
  5
447
  8
0
 10
100.939725847100803
 20
102.6020091917890937
 30
0.0
 40
0.5
 50
77.9999999998314308
 51
168.0000000000352998
  0
LINE
  5
448
  8
0
 10
98.1329178470996482
 20
89.39701719179007
 30
0.0
 11
110.8488368471015946
 21
86.6941651917915408
 31
0.0
  0
LINE
  5
449
  8
0
 10
113.759599847101498
 20
100.3882311917915047
 30
0.0
 11
101.0436808470994947
 21
103.0910831917901049
 31
0.0
  0
LINE
  5
44A
  8
0
 10
111.4418658470977022
 20
87.0792831917898837
 30
0.0
 11
114.1447178470997983
 21
99.7952021917919154
 31
0.0
  0
LINE
  5
44B
  8
0
 10
100.4506518471035008
 20
102.7059651917917051
 30
0.0
 11
97.7477998471013194
 21
89.9900461917897445
 31
0.0
  0
ARC
  5
44C
  8
0
 10
116.8705848471009006
 20
85.9253751917896409
 30
0.0
 40
0.5
 50
168.0000000000352998
 51
257.9999999998314024
  0
ARC
  5
44D
  8
0
 10
129.5865038471029038
 20
83.2225231917911259
 30
0.0
 40
0.5
 50
257.9999999998314024
 51
348.0000000000352998
  0
ARC
  5
44E
  8
0
 10
132.289355847097795
 20
95.9384411917891669
 30
0.0
 40
0.5
 50
348.0000000000352998
 51
77.9999999998314308
  0
ARC
  5
44F
  8
0
 10
119.5734368471029967
 20
98.641293191791334
 30
0.0
 40
0.5
 50
77.9999999998314308
 51
168.0000000000352998
  0
LINE
  5
450
  8
0
 10
116.7666298471021946
 20
85.4363011917886581
 30
0.0
 11
129.4825478471038878
 21
82.7334491917901289
 31
0.0
  0
LINE
  5
451
  8
0
 10
132.3933118471040871
 20
96.4275151917901354
 30
0.0
 11
119.677392847102098
 21
99.130367191788693
 31
0.0
  0
LINE
  5
452
  8
0
 10
130.0755778471001918
 20
83.1185671917884576
 30
0.0
 11
132.7784298471023874
 21
95.8344861917904893
 31
0.0
  0
LINE
  5
453
  8
0
 10
119.0843638470987003
 20
98.7452491917903643
 30
0.0
 11
116.3815118471038943
 21
86.0293301917919564
 31
0.0
  0
ARC
  5
454
  8
0
 10
135.5042968471034044
 20
81.9646571917911899
 30
0.0
 40
0.5
 50
168.0000000000352998
 51
257.9999999998314024
  0
ARC
  5
455
  8
0
 10
148.2202158470981885
 20
79.2618051917890227
 30
0.0
 40
0.5
 50
257.9999999998314024
 51
348.0000000000352998
  0
ARC
  5
456
  8
0
 10
150.9230678471002989
 20
91.9777241917910544
 30
0.0
 40
0.5
 50
348.0000000000352998
 51
77.9999999998314308
  0
ARC
  5
457
  8
0
 10
138.2071488470982956
 20
94.6805761917895836
 30
0.0
 40
0.5
 50
77.9999999998314308
 51
168.0000000000352998
  0
LINE
  5
458
  8
0
 10
135.4003408471043883
 20
81.4755831917902071
 30
0.0
 11
148.1162598470992009
 21
78.7727311917916779
 31
0.0
  0
LINE
  5
459
  8
0
 10
151.0270238470994002
 20
92.4667971917916844
 30
0.0
 11
138.3111048471045876
 21
95.1696491917902136
 31
0.0
  0
LINE
  5
45A
  8
0
 10
148.7092898471028093
 20
79.1578491917900067
 30
0.0
 11
151.4121418470977005
 21
91.8737681917920384
 31
0.0
  0
LINE
  5
45B
  8
0
 10
137.7180748471010077
 20
94.7845311917918991
 30
0.0
 11
135.0152228470988121
 21
82.068613191790206
 31
0.0
  0
ARC
  5
45C
  8
0
 10
93.6200758471031946
 20
110.3223421917901987
 30
0.0
 40
0.5
 50
168.0000000000352998
 51
257.9999999998314024
  0
ARC
  5
45D
  8
0
 10
106.3359938470975976
 20
107.619490191791698
 30
0.0
 40
0.5
 50
257.9999999998314024
 51
348.0000000000352998
  0
ARC
  5
45E
  8
0
 10
109.0388458470996937
 20
120.3354091917901059
 30
0.0
 40
0.5
 50
348.0000000000352998
 51
77.9999999998314308
  0
ARC
  5
45F
  8
0
 10
96.3229278470980859
 20
123.0382611917886067
 30
0.0
 40
0.5
 50
77.9999999998314308
 51
168.0000000000352998
  0
LINE
  5
460
  8
0
 10
93.5161198471041786
 20
109.8332681917892018
 30
0.0
 11
106.2320388470989059
 21
107.130416191790701
 31
0.0
  0
LINE
  5
461
  8
0
 10
109.1428018470987951
 20
120.8244831917911029
 30
0.0
 11
96.4268828471040393
 21
123.5273351917896036
 31
0.0
  0
LINE
  5
462
  8
0
 10
106.8250678471022042
 20
107.5155341917890013
 30
0.0
 11
109.5279198471043998
 21
120.2314531917910045
 31
0.0
  0
LINE
  5
463
  8
0
 10
95.8338538471007553
 20
123.1422171917913033
 30
0.0
 11
93.1310018470985739
 21
110.4262981917892006
 31
0.0
  0
ARC
  5
464
  8
0
 10
112.2537868470980982
 20
106.3616241917918046
 30
0.0
 40
0.5
 50
168.0000000000352998
 51
257.9999999998314024
  0
ARC
  5
465
  8
0
 10
124.9697058471001014
 20
103.6587721917895948
 30
0.0
 40
0.5
 50
257.9999999998314024
 51
348.0000000000352998
  0
ARC
  5
466
  8
0
 10
127.672557847102297
 20
116.374691191791598
 30
0.0
 40
0.5
 50
348.0000000000352998
 51
77.9999999998314308
  0
ARC
  5
467
  8
0
 10
114.9566388471002938
 20
119.0775431917901983
 30
0.0
 40
0.5
 50
77.9999999998314308
 51
168.0000000000352998
  0
LINE
  5
468
  8
0
 10
112.1498318470994064
 20
105.8725501917907934
 30
0.0
 11
124.8657498471010996
 21
103.1696981917885978
 31
0.0
  0
LINE
  5
469
  8
0
 10
127.7765138471012989
 20
116.8637651917889997
 30
0.0
 11
115.0605948470992956
 21
119.5666171917910958
 31
0.0
  0
LINE
  5
46A
  8
0
 10
125.4587798470975031
 20
103.5548161917905929
 30
0.0
 11
128.1616318470996134
 21
116.2707351917890009
 31
0.0
  0
LINE
  5
46B
  8
0
 10
114.4675658471033017
 20
119.1814991917892002
 30
0.0
 11
111.7647138471011061
 21
106.4655801917908065
 31
0.0
  0
ARC
  5
46C
  8
0
 10
130.8874988471006873
 20
102.4009081917902932
 30
0.0
 40
0.5
 50
168.0000000000352998
 51
257.9999999998314024
  0
ARC
  5
46D
  8
0
 10
143.6034178471026905
 20
99.6980561917918351
 30
0.0
 40
0.5
 50
257.9999999998314024
 51
348.0000000000352998
  0
ARC
  5
46E
  8
0
 10
146.3062698470976102
 20
112.4139751917902004
 30
0.0
 40
0.5
 50
348.0000000000352998
 51
77.9999999998314308
  0
ARC
  5
46F
  8
0
 10
133.5903508471027976
 20
115.1168271917887012
 30
0.0
 40
0.5
 50
77.9999999998314308
 51
168.0000000000352998
  0
LINE
  5
470
  8
0
 10
130.7835428471015859
 20
101.9118341917892963
 30
0.0
 11
143.4994618471037029
 21
99.2089821917908665
 31
0.0
  0
LINE
  5
471
  8
0
 10
146.4102258471039022
 20
112.9030491917911974
 30
0.0
 11
133.6943068471018137
 21
115.6059011917896981
 31
0.0
  0
LINE
  5
472
  8
0
 10
144.0924918471000069
 20
99.5941001917891811
 30
0.0
 11
146.7953438471022025
 21
112.3100191917911985
 31
0.0
  0
LINE
  5
473
  8
0
 10
133.1012768470982053
 20
115.2207831917913978
 30
0.0
 11
130.3984248471033141
 21
102.5048641917893946
 31
0.0
  0
ARC
  5
474
  8
0
 10
149.5212108471031911
 20
98.4401901917919133
 30
0.0
 40
0.5
 50
168.0000000000352998
 51
257.9999999998314024
  0
ARC
  5
475
  8
0
 10
162.2371298470980037
 20
95.7373381917897461
 30
0.0
 40
0.5
 50
257.9999999998314024
 51
348.0000000000352998
  0
ARC
  5
476
  8
0
 10
164.939981847100114
 20
108.4532571917917068
 30
0.0
 40
0.5
 50
348.0000000000352998
 51
77.9999999998314308
  0
ARC
  5
477
  8
0
 10
152.2240628470981108
 20
111.156109191790307
 30
0.0
 40
0.5
 50
77.9999999998314308
 51
168.0000000000352998
  0
LINE
  5
478
  8
0
 10
149.4172548471042035
 20
97.9511161917909448
 30
0.0
 11
162.1331738470989876
 21
95.2482641917887634
 31
0.0
  0
LINE
  5
479
  8
0
 10
165.0439378470991869
 20
108.9423311917890942
 30
0.0
 11
152.3280188471044028
 21
111.645183191791304
 31
0.0
  0
LINE
  5
47A
  8
0
 10
162.726203847102596
 20
95.6333821917907301
 30
0.0
 11
165.4290558470974872
 21
108.3493011917890954
 31
0.0
  0
LINE
  5
47B
  8
0
 10
151.7349888471007944
 20
111.2600651917892947
 30
0.0
 11
149.0321368470985988
 21
98.5441461917909436
 31
0.0
  0
ARC
  5
47C
  8
0
 10
183.7227178471011939
 20
98.9059111917887748
 30
0.0
 40
0.5
 50
191.9999999999647002
 51
282.0000000001685976
  0
ARC
  5
47D
  8
0
 10
196.4386368471031972
 20
101.6087631917908993
 30
0.0
 40
0.5
 50
282.0000000001685976
 51
11.9999999999647393
  0
ARC
  5
47E
  8
0
 10
193.7357848471010016
 20
114.324682191789293
 30
0.0
 40
0.5
 50
11.9999999999647393
 51
102.0000000001685976
  0
ARC
  5
47F
  8
0
 10
181.0198658470989983
 20
111.6218301917908065
 30
0.0
 40
0.5
 50
102.0000000001685976
 51
191.9999999999647002
  0
LINE
  5
480
  8
0
 10
183.82667384710021
 20
98.4168381917917543
 30
0.0
 11
196.5425928471022132
 21
101.1196901917902977
 31
0.0
  0
LINE
  5
481
  8
0
 10
193.6318288471020139
 20
114.8137561917903042
 30
0.0
 11
180.9159098471000107
 21
112.110904191791704
 31
0.0
  0
LINE
  5
482
  8
0
 10
196.9277108471005135
 20
101.7127191917899012
 30
0.0
 11
194.2248588470984032
 21
114.4286381917920039
 31
0.0
  0
LINE
  5
483
  8
0
 10
180.5307918471017103
 20
111.5178741917917051
 30
0.0
 11
183.2336438471037923
 21
98.801956191790083
 31
0.0
  0
ARC
  5
484
  8
0
 10
202.3564298471038114
 20
102.8666291917908069
 30
0.0
 40
0.5
 50
191.9999999999647002
 51
282.0000000001685976
  0
ARC
  5
485
  8
0
 10
215.0723488470985103
 20
105.5694811917892935
 30
0.0
 40
0.5
 50
282.0000000001685976
 51
11.9999999999647393
  0
ARC
  5
486
  8
0
 10
212.3694968471035907
 20
118.2854001917913962
 30
0.0
 40
0.5
 50
11.9999999999647393
 51
102.0000000001685976
  0
ARC
  5
487
  8
0
 10
199.6535778471015874
 20
115.5825481917892006
 30
0.0
 40
0.5
 50
102.0000000001685976
 51
191.9999999999647002
  0
LINE
  5
488
  8
0
 10
202.4603858471027138
 20
102.3775551917897957
 30
0.0
 11
215.1763038471044922
 21
105.0804071917883959
 31
0.0
  0
LINE
  5
489
  8
0
 10
212.265540847104603
 20
118.7744741917886984
 30
0.0
 11
199.5496218471024861
 21
116.0716221917901976
 31
0.0
  0
LINE
  5
48A
  8
0
 10
215.5614218471027925
 20
105.6734371917920043
 30
0.0
 11
212.8585698471005969
 21
118.389356191790398
 31
0.0
  0
LINE
  5
48B
  8
0
 10
199.1645038471042142
 20
115.4785921917901987
 30
0.0
 11
201.8673558470991054
 21
102.762673191791805
 31
0.0
  0
ARC
  5
48C
  8
0
 10
220.9901418470990961
 20
106.8273471917893005
 30
0.0
 40
0.5
 50
191.9999999999647002
 51
282.0000000001685976
  0
ARC
  5
48D
  8
0
 10
233.706059847100704
 20
109.5301991917913966
 30
0.0
 40
0.5
 50
282.0000000001685976
 51
11.9999999999647393
  0
ARC
  5
48E
  8
0
 10
231.0032078470985937
 20
122.2461181917898045
 30
0.0
 40
0.5
 50
11.9999999999647393
 51
102.0000000001685976
  0
ARC
  5
48F
  8
0
 10
218.2872898471042049
 20
119.5432661917913038
 30
0.0
 40
0.5
 50
102.0000000001685976
 51
191.9999999999647002
  0
LINE
  5
490
  8
0
 10
221.0940968470976884
 20
106.3382731917918989
 30
0.0
 11
233.8100158470996917
 21
109.0411251917903996
 31
0.0
  0
LINE
  5
491
  8
0
 10
230.8992528470998877
 20
122.7351921917908015
 30
0.0
 11
218.1833338470977992
 21
120.0323401917887054
 31
0.0
  0
LINE
  5
492
  8
0
 10
234.1951338470981057
 20
109.634155191790498
 30
0.0
 11
231.492281847103186
 21
122.3500741917888064
 31
0.0
  0
LINE
  5
493
  8
0
 10
217.7982158470994989
 20
119.4393101917887066
 30
0.0
 11
220.5010678471016945
 21
106.7233911917902986
 31
0.0
  0
ARC
  5
494
  8
0
 10
239.6238528471012899
 20
110.7880651917914037
 30
0.0
 40
0.5
 50
191.9999999999647002
 51
282.0000000001685976
  0
ARC
  5
495
  8
0
 10
252.3397718471032931
 20
113.4909171917899045
 30
0.0
 40
0.5
 50
282.0000000001685976
 51
11.9999999999647393
  0
ARC
  5
496
  8
0
 10
249.6369198471010975
 20
126.2068361917918935
 30
0.0
 40
0.5
 50
11.9999999999647393
 51
102.0000000001685976
  0
ARC
  5
497
  8
0
 10
236.9210008470990942
 20
123.5039841917897974
 30
0.0
 40
0.5
 50
102.0000000001685976
 51
191.9999999999647002
  0
LINE
  5
498
  8
0
 10
239.7278088471003059
 20
110.2989911917904067
 30
0.0
 11
252.4437278471023092
 21
113.0018431917888933
 31
0.0
  0
LINE
  5
499
  8
0
 10
249.5329638471021099
 20
126.6959101917892951
 30
0.0
 11
236.8170458471003883
 21
123.9930581917906949
 31
0.0
  0
LINE
  5
49A
  8
0
 10
252.8288458471006095
 20
113.5948731917889063
 30
0.0
 11
250.1259938470984991
 21
126.3107921917908953
 31
0.0
  0
LINE
  5
49B
  8
0
 10
236.431927847102088
 20
123.400028191790696
 30
0.0
 11
239.134779847104312
 21
110.684109191788707
 31
0.0
  0
ARC
  5
49C
  8
0
 10
179.1059198470983915
 20
78.4696601917895862
 30
0.0
 40
0.5
 50
191.9999999999647002
 51
282.0000000001685976
  0
ARC
  5
49D
  8
0
 10
191.8218388471005085
 20
81.1725121917917534
 30
0.0
 40
0.5
 50
282.0000000001685976
 51
11.9999999999647393
  0
ARC
  5
49E
  8
0
 10
189.1189868470983129
 20
93.8884311917901471
 30
0.0
 40
0.5
 50
11.9999999999647393
 51
102.0000000001685976
  0
ARC
  5
49F
  8
0
 10
176.4030678471035003
 20
91.1855791917916179
 30
0.0
 40
0.5
 50
102.0000000001685976
 51
191.9999999999647002
  0
LINE
  5
4A0
  8
0
 10
179.2098758470974076
 20
77.9805861917886034
 30
0.0
 11
191.9257948470994961
 21
80.6834381917907706
 31
0.0
  0
LINE
  5
4A1
  8
0
 10
189.0150308470992968
 20
94.3775051917911298
 30
0.0
 11
176.2991118471045127
 21
91.6746531917889627
 31
0.0
  0
LINE
  5
4A2
  8
0
 10
192.3109128470977964
 20
81.2764681917907552
 30
0.0
 11
189.6080608471029052
 21
93.9923871917891489
 31
0.0
  0
LINE
  5
4A3
  8
0
 10
175.913993847098908
 20
91.0816231917889638
 30
0.0
 11
178.6168458471011036
 21
78.3657041917905701
 31
0.0
  0
ARC
  5
4A4
  8
0
 10
197.739631847101009
 20
82.4303781917916751
 30
0.0
 40
0.5
 50
191.9999999999647002
 51
282.0000000001685976
  0
ARC
  5
4A5
  8
0
 10
210.4555508471030976
 20
85.1332301917902043
 30
0.0
 40
0.5
 50
282.0000000001685976
 51
11.9999999999647393
  0
ARC
  5
4A6
  8
0
 10
207.752698847100902
 20
97.8491491917885838
 30
0.0
 40
0.5
 50
11.9999999999647393
 51
102.0000000001685976
  0
ARC
  5
4A7
  8
0
 10
195.0367798470988134
 20
95.1462971917900688
 30
0.0
 40
0.5
 50
102.0000000001685976
 51
191.9999999999647002
  0
LINE
  5
4A8
  8
0
 10
197.8435878470999967
 20
81.9413041917906924
 30
0.0
 11
210.5595058471016898
 21
84.6441561917892216
 31
0.0
  0
LINE
  5
4A9
  8
0
 10
207.6487428471018006
 20
98.3382231917895808
 30
0.0
 11
194.9328238470997974
 21
95.6353711917910516
 31
0.0
  0
LINE
  5
4AA
  8
0
 10
210.9446238470999901
 20
85.2371861917892204
 30
0.0
 11
208.2417718470979082
 21
97.9531051917912521
 31
0.0
  0
LINE
  5
4AB
  8
0
 10
194.5477058471014971
 20
95.0423411917910528
 30
0.0
 11
197.2505578471036074
 21
82.3264221917890211
 31
0.0
  0
ARC
  5
4AC
  8
0
 10
216.3733438471035981
 20
86.3910961917901261
 30
0.0
 40
0.5
 50
191.9999999999647002
 51
282.0000000001685976
  0
ARC
  5
4AD
  8
0
 10
229.0892618470979869
 20
89.0939481917886553
 30
0.0
 40
0.5
 50
282.0000000001685976
 51
11.9999999999647393
  0
ARC
  5
4AE
  8
0
 10
226.3864098471030957
 20
101.8098671917907012
 30
0.0
 40
0.5
 50
11.9999999999647393
 51
102.0000000001685976
  0
ARC
  5
4AF
  8
0
 10
213.6704918471014025
 20
99.1070151917885198
 30
0.0
 40
0.5
 50
102.0000000001685976
 51
191.9999999999647002
  0
LINE
  5
4B0
  8
0
 10
216.4772988471021904
 20
85.9020221917891433
 30
0.0
 11
229.1932178471043073
 21
88.6048741917913105
 31
0.0
  0
LINE
  5
4B1
  8
0
 10
226.2824548471043897
 20
102.2989401917913028
 30
0.0
 11
213.5665358471023865
 21
99.5960881917891641
 31
0.0
  0
LINE
  5
4B2
  8
0
 10
229.5783358471026077
 20
89.1979041917913094
 30
0.0
 11
226.8754838471004973
 21
101.9138221917892935
 31
0.0
  0
LINE
  5
4B3
  8
0
 10
213.1814178471040009
 20
99.0030591917895038
 30
0.0
 11
215.8842698470988921
 21
86.2871401917911243
 31
0.0
  0
ARC
  5
4B4
  8
0
 10
235.0070548470984875
 20
90.3518141917885771
 30
0.0
 40
0.5
 50
191.9999999999647002
 51
282.0000000001685976
  0
ARC
  5
4B5
  8
0
 10
247.7229738471006044
 20
93.0546661917907443
 30
0.0
 40
0.5
 50
282.0000000001685976
 51
11.9999999999647393
  0
ARC
  5
4B6
  8
0
 10
245.0201218470984088
 20
105.7705851917890953
 30
0.0
 40
0.5
 50
11.9999999999647393
 51
102.0000000001685976
  0
ARC
  5
4B7
  8
0
 10
232.3042028471035962
 20
103.0677331917905946
 30
0.0
 40
0.5
 50
102.0000000001685976
 51
191.9999999999647002
  0
LINE
  5
4B8
  8
0
 10
235.1110108471048079
 20
89.8627401917912323
 30
0.0
 11
247.8269298470995068
 21
92.5655921917897615
 31
0.0
  0
LINE
  5
4B9
  8
0
 10
244.9161658470993927
 20
106.259658191789697
 30
0.0
 11
232.2002478470976996
 21
103.5568061917911962
 31
0.0
  0
LINE
  5
4BA
  8
0
 10
248.2120478470978924
 20
93.1586221917897603
 30
0.0
 11
245.5091958471030011
 21
105.8745401917913966
 31
0.0
  0
LINE
  5
4BB
  8
0
 10
231.815129847099314
 20
102.9637771917916069
 30
0.0
 11
234.5179818471015096
 21
90.2478581917895752
 31
0.0
  0
ARC
  5
4BC
  8
0
 10
188.4644038471024032
 20
61.0039481917885169
 30
0.0
 40
0.5
 50
191.9999999999647002
 51
282.0000000001685976
  0
ARC
  5
4BD
  8
0
 10
201.1803228471044065
 20
63.7068001917906912
 30
0.0
 40
0.5
 50
282.0000000001685976
 51
11.9999999999647393
  0
ARC
  5
4BE
  8
0
 10
198.4774708471022109
 20
76.4227181917887322
 30
0.0
 40
0.5
 50
11.9999999999647393
 51
102.0000000001685976
  0
ARC
  5
4BF
  8
0
 10
185.7615518471002076
 20
73.7198661917902029
 30
0.0
 40
0.5
 50
102.0000000001685976
 51
191.9999999999647002
  0
LINE
  5
4C0
  8
0
 10
188.5683598471013909
 20
60.5148741917911721
 30
0.0
 11
201.2842788471035078
 21
63.2177261917897013
 31
0.0
  0
LINE
  5
4C1
  8
0
 10
198.3735148471031948
 20
76.9117921917897149
 30
0.0
 11
185.6575958471011916
 21
74.2089401917911857
 31
0.0
  0
LINE
  5
4C2
  8
0
 10
201.6693968471018081
 20
63.8107551917893616
 30
0.0
 11
198.9665448470996125
 21
76.5266741917913862
 31
0.0
  0
LINE
  5
4C3
  8
0
 10
185.2724778471028912
 20
73.6159111917915254
 30
0.0
 11
187.9753298470978109
 21
60.8999921917895009
 31
0.0
  0
ARC
  5
4C4
  8
0
 10
207.0981158470976879
 20
64.9646651917902602
 30
0.0
 40
0.5
 50
191.9999999999647002
 51
282.0000000001685976
  0
ARC
  5
4C5
  8
0
 10
219.8140348470996912
 20
67.6675171917887894
 30
0.0
 40
0.5
 50
282.0000000001685976
 51
11.9999999999647393
  0
ARC
  5
4C6
  8
0
 10
217.1111828470976093
 20
80.3834361917908211
 30
0.0
 40
0.5
 50
11.9999999999647393
 51
102.0000000001685976
  0
ARC
  5
4C7
  8
0
 10
204.3952638471027967
 20
77.6805841917886539
 30
0.0
 40
0.5
 50
102.0000000001685976
 51
191.9999999999647002
  0
LINE
  5
4C8
  8
0
 10
207.2020718471040084
 20
64.475592191789616
 30
0.0
 11
219.9179898470983971
 21
67.1784441917917832
 31
0.0
  0
LINE
  5
4C9
  8
0
 10
217.007226847098508
 20
80.8725101917918039
 30
0.0
 11
204.2913078471038091
 21
78.1696581917896367
 31
0.0
  0
LINE
  5
4CA
  8
0
 10
220.3031078471040018
 20
67.7714731917914435
 30
0.0
 11
217.6002558471018062
 21
80.487392191789823
 31
0.0
  0
LINE
  5
4CB
  8
0
 10
203.9061898470982044
 20
77.5766281917896379
 30
0.0
 11
206.6090418471004
 21
64.8607101917915827
 31
0.0
  0
ARC
  5
4CC
  8
0
 10
225.7318278471001918
 20
68.9253831917887112
 30
0.0
 40
0.5
 50
191.9999999999647002
 51
282.0000000001685976
  0
ARC
  5
4CD
  8
0
 10
238.4477458471019133
 20
71.6282351917908784
 30
0.0
 40
0.5
 50
282.0000000001685976
 51
11.9999999999647393
  0
ARC
  5
4CE
  8
0
 10
235.744893847099803
 20
84.3441541917892721
 30
0.0
 40
0.5
 50
11.9999999999647393
 51
102.0000000001685976
  0
ARC
  5
4CF
  8
0
 10
223.0289758470981099
 20
81.6413021917907429
 30
0.0
 40
0.5
 50
102.0000000001685976
 51
191.9999999999647002
  0
LINE
  5
4D0
  8
0
 10
225.8357828470988977
 20
68.4363101917917049
 30
0.0
 11
238.5517018471009862
 21
71.1391621917902341
 31
0.0
  0
LINE
  5
4D1
  8
0
 10
235.6409388471010971
 20
84.8332281917902549
 30
0.0
 11
222.9250198470990938
 21
82.1303761917917257
 31
0.0
  0
LINE
  5
4D2
  8
0
 10
238.9368198470992866
 20
71.7321911917898944
 30
0.0
 11
236.2339678471043953
 21
84.4481101917919261
 31
0.0
  0
LINE
  5
4D3
  8
0
 10
222.5399018471007082
 20
81.5373461917917268
 30
0.0
 11
225.2427538471029038
 21
68.8214281917900337
 31
0.0
  0
ARC
  5
4D4
  8
0
 10
244.3655388471024992
 20
72.8861011917908002
 30
0.0
 40
0.5
 50
191.9999999999647002
 51
282.0000000001685976
  0
ARC
  5
4D5
  8
0
 10
257.0814578471045024
 20
75.5889531917893294
 30
0.0
 40
0.5
 50
282.0000000001685976
 51
11.9999999999647393
  0
ARC
  5
4D6
  8
0
 10
254.3786058471023068
 20
88.304872191791361
 30
0.0
 40
0.5
 50
11.9999999999647393
 51
102.0000000001685976
  0
ARC
  5
4D7
  8
0
 10
241.6626868471003036
 20
85.6020201917891939
 30
0.0
 40
0.5
 50
102.0000000001685976
 51
191.9999999999647002
  0
LINE
  5
4D8
  8
0
 10
244.4694948471014868
 20
72.3970271917898174
 30
0.0
 11
257.1854138471035185
 21
75.0998791917883466
 31
0.0
  0
LINE
  5
4D9
  8
0
 10
254.2746498471032908
 20
88.7939461917887058
 30
0.0
 11
241.5587308471012875
 21
86.0910941917901766
 31
0.0
  0
LINE
  5
4DA
  8
0
 10
257.5705318471019041
 20
75.6929091917919834
 30
0.0
 11
254.8676798470997085
 21
88.4088281917903771
 31
0.0
  0
LINE
  5
4DB
  8
0
 10
241.1736128471029872
 20
85.4980641917901778
 30
0.0
 11
243.8764648470979068
 21
72.7821451917917841
 31
0.0
  0
ARC
  5
4DC
  8
0
 10
179.1891758471037974
 20
39.577517191788651
 30
0.0
 40
0.5
 50
191.9999999999647002
 51
282.0000000001685976
  0
ARC
  5
4DD
  8
0
 10
191.9050948470984963
 20
42.2803691917908111
 30
0.0
 40
0.5
 50
282.0000000001685976
 51
11.9999999999647393
  0
ARC
  5
4DE
  8
0
 10
189.2022428471036903
 20
54.9962881917892119
 30
0.0
 40
0.5
 50
11.9999999999647393
 51
102.0000000001685976
  0
ARC
  5
4DF
  8
0
 10
176.4863238471016018
 20
52.2934361917906827
 30
0.0
 40
0.5
 50
102.0000000001685976
 51
191.9999999999647002
  0
LINE
  5
4E0
  8
0
 10
179.2931318471028135
 20
39.0884431917913133
 30
0.0
 11
192.0090508470975124
 21
41.7912951917898283
 31
0.0
  0
LINE
  5
4E1
  8
0
 10
189.098286847104589
 20
55.4853621917902018
 30
0.0
 11
176.3823678471026142
 21
52.7825101917916584
 31
0.0
  0
LINE
  5
4E2
  8
0
 10
192.3941688471032023
 20
42.3843251917898272
 30
0.0
 11
189.6913168471010067
 21
55.1002441917918588
 31
0.0
  0
LINE
  5
4E3
  8
0
 10
175.9972498471043139
 20
52.1894801917916595
 30
0.0
 11
178.7001018470992051
 21
39.4735611917896421
 31
0.0
  0
ARC
  5
4E4
  8
0
 10
197.8228878470991106
 20
43.53823519179074
 30
0.0
 40
0.5
 50
191.9999999999647002
 51
282.0000000001685976
  0
ARC
  5
4E5
  8
0
 10
210.5388068471011138
 20
46.2410871917892621
 30
0.0
 40
0.5
 50
282.0000000001685976
 51
11.9999999999647393
  0
ARC
  5
4E6
  8
0
 10
207.8359548470988898
 20
58.9570061917913009
 30
0.0
 40
0.5
 50
11.9999999999647393
 51
102.0000000001685976
  0
ARC
  5
4E7
  8
0
 10
195.1200358471041909
 20
56.2541541917891408
 30
0.0
 40
0.5
 50
102.0000000001685976
 51
191.9999999999647002
  0
LINE
  5
4E8
  8
0
 10
197.9268438470980982
 20
43.0491611917897501
 30
0.0
 11
210.6427618470997913
 21
45.7520131917919173
 31
0.0
  0
LINE
  5
4E9
  8
0
 10
207.7319988470999022
 20
59.4460801917886528
 30
0.0
 11
195.0160798470978989
 21
56.7432281917901093
 31
0.0
  0
LINE
  5
4EA
  8
0
 10
211.0278798470980917
 20
46.3450431917919232
 30
0.0
 11
208.3250278471032004
 21
59.0609621917903169
 31
0.0
  0
LINE
  5
4EB
  8
0
 10
194.6309618470995986
 20
56.1501981917901105
 30
0.0
 11
197.3338138471017089
 21
43.4342791917917168
 31
0.0
  0
ARC
  5
4EC
  8
0
 10
216.4565998471016997
 20
47.498953191789191
 30
0.0
 40
0.5
 50
191.9999999999647002
 51
282.0000000001685976
  0
ARC
  5
4ED
  8
0
 10
229.1725178471033075
 20
50.201805191791351
 30
0.0
 40
0.5
 50
282.0000000001685976
 51
11.9999999999647393
  0
ARC
  5
4EE
  8
0
 10
226.4696658471011972
 20
62.9177241917897518
 30
0.0
 40
0.5
 50
11.9999999999647393
 51
102.0000000001685976
  0
ARC
  5
4EF
  8
0
 10
213.753747847099504
 20
60.2148721917912226
 30
0.0
 40
0.5
 50
102.0000000001685976
 51
191.9999999999647002
  0
LINE
  5
4F0
  8
0
 10
216.5605548471002919
 20
47.009879191791839
 30
0.0
 11
229.2764738471022952
 21
49.7127311917903825
 31
0.0
  0
LINE
  5
4F1
  8
0
 10
226.3657108471024912
 20
63.4067981917907275
 30
0.0
 11
213.6497918471004027
 21
60.7039461917885603
 31
0.0
  0
LINE
  5
4F2
  8
0
 10
229.6615918471007092
 20
50.3057611917903813
 30
0.0
 11
226.9587398470985136
 21
63.0216801917887679
 31
0.0
  0
LINE
  5
4F3
  8
0
 10
213.2646738471021024
 20
60.1109161917885686
 30
0.0
 11
215.967525847104298
 21
47.394997191790182
 31
0.0
  0
ARC
  5
4F4
  8
0
 10
235.0903108471038934
 20
51.4596711917912799
 30
0.0
 40
0.5
 50
191.9999999999647002
 51
282.0000000001685976
  0
ARC
  5
4F5
  8
0
 10
247.8062298470985922
 20
54.1625231917898091
 30
0.0
 40
0.5
 50
282.0000000001685976
 51
11.9999999999647393
  0
ARC
  5
4F6
  8
0
 10
245.103377847103701
 20
66.8784421917918337
 30
0.0
 40
0.5
 50
11.9999999999647393
 51
102.0000000001685976
  0
ARC
  5
4F7
  8
0
 10
232.3874588471016978
 20
64.1755901917896665
 30
0.0
 40
0.5
 50
102.0000000001685976
 51
191.9999999999647002
  0
LINE
  5
4F8
  8
0
 10
235.1942668471029094
 20
50.97059719179029
 30
0.0
 11
247.9101858470976083
 21
53.6734491917888334
 31
0.0
  0
LINE
  5
4F9
  8
0
 10
244.9994218471047134
 20
67.36751519178884
 30
0.0
 11
232.2835038471029918
 21
64.6646631917903107
 31
0.0
  0
LINE
  5
4FA
  8
0
 10
248.295303847103213
 20
54.2664791917888323
 30
0.0
 11
245.5924518471011027
 21
66.9823971917905112
 31
0.0
  0
LINE
  5
4FB
  8
0
 10
231.8983858471046915
 20
64.0716341917906504
 30
0.0
 11
234.6012378470996111
 21
51.355715191788633
 31
0.0
  0
ARC
  5
4FC
  8
0
 10
204.8003008470996065
 20
38.8371061917897933
 30
0.0
 40
0.5
 50
11.9999999999647393
 51
102.0000000001685976
  0
ARC
  5
4FD
  8
0
 10
192.0843818470974895
 20
36.134254191791257
 30
0.0
 40
0.5
 50
102.0000000001685976
 51
191.9999999999647002
  0
LINE
  5
4FE
  8
0
 10
194.8911898470987012
 20
22.9292621917885917
 30
0.0
 11
207.6071088471007897
 21
25.6321141917907589
 31
0.0
  0
LINE
  5
4FF
  8
0
 10
207.99222684709909
 20
26.2251431917904192
 30
0.0
 11
205.2893748471041988
 21
38.9410621917888093
 31
0.0
  0
LINE
  5
500
  8
0
 10
191.5953078471002016
 20
36.0302991917889486
 30
0.0
 11
194.2981598471023972
 21
23.3143801917905584
 31
0.0
  0
ARC
  5
501
  8
0
 10
186.7415358470979925
 20
20.685829191788951
 30
0.0
 40
0.5
 50
191.9999999999647002
 51
282.0000000001685976
  0
ARC
  5
502
  8
0
 10
192.6104218471018044
 20
21.9332991917910185
 30
0.0
 40
0.5
 50
282.0000000001685976
 51
11.9999999999647393
  0
LINE
  5
503
  8
0
 10
186.8454918471043129
 20
20.1967551917915991
 30
0.0
 11
192.7143778471009057
 21
21.4442261917903707
 31
0.0
  0
LINE
  5
504
  8
0
 10
193.099495847099206
 20
22.037255191790031
 30
0.0
 11
190.1887318470990067
 21
35.7313221917903903
 31
0.0
  0
ARC
  5
505
  8
0
 10
210.0957878471027129
 20
25.649929191790001
 30
0.0
 40
0.5
 50
191.9999999999647002
 51
282.0000000001685976
  0
ARC
  5
506
  8
0
 10
215.964673847099192
 20
26.8973991917884305
 30
0.0
 40
0.5
 50
282.0000000001685976
 51
11.9999999999647393
  0
ARC
  5
507
  8
0
 10
213.0539098470989927
 20
40.591465191788437
 30
0.0
 40
0.5
 50
11.9999999999647393
 51
12.03389967853572
  0
LINE
  5
508
  8
0
 10
210.1997438471017006
 20
25.1608551917890217
 30
0.0
 11
216.0686298470982081
 21
26.4083251917910893
 31
0.0
  0
ARC
  5
509
  8
0
 10
227.3962298471024042
 20
30.3495921917894194
 30
0.0
 40
0.5
 50
191.9999999999647002
 51
282.0000000001685976
  0
ARC
  5
50A
  8
0
 10
240.1121488471044074
 20
33.0524441917915865
 30
0.0
 40
0.5
 50
282.0000000001685976
 51
11.9999999999647393
  0
ARC
  5
50B
  8
0
 10
237.4092968471022971
 20
45.7683631917899802
 30
0.0
 40
0.5
 50
11.9999999999647393
 51
102.0000000001685976
  0
LINE
  5
50C
  8
0
 10
227.5001858471013918
 20
29.8605191917887787
 30
0.0
 11
240.2161038471031134
 21
32.5633711917909423
 31
0.0
  0
LINE
  5
50D
  8
0
 10
237.3053408471033094
 20
46.257437191790963
 30
0.0
 11
224.5894218471011925
 21
43.5545851917887887
 31
0.0
  0
LINE
  5
50E
  8
0
 10
240.601221847101499
 20
33.1564001917906026
 30
0.0
 11
237.8983698470993033
 21
45.8723191917890034
 31
0.0
  0
LINE
  5
50F
  8
0
 10
226.3873766667319956
 20
32.6910058008362867
 30
0.0
 11
226.9071558470978118
 21
30.2456371917907383
 31
0.0
  0
ARC
  5
510
  8
0
 10
135.2330236925126883
 20
36.9273159921578227
 30
0.0
 40
0.5
 50
348.0000000000352998
 51
77.9999999998314308
  0
LINE
  5
511
  8
0
 10
119.7102966925095018
 20
26.4251759921573104
 30
0.0
 11
132.426215692511505
 21
23.7223239921587812
 31
0.0
  0
ARC
  5
512
  8
0
 10
143.6945446925101066
 20
36.1511049921574923
 30
0.0
 40
0.5
 50
348.0000000000352998
 51
77.9999999998314308
  0
ARC
  5
513
  8
0
 10
134.9148946925132861
 20
23.7045089921559011
 30
0.0
 40
0.5
 50
168.0000000000352998
 51
168.1020649827270859
  0
LINE
  5
514
  8
0
 10
143.7985006925090943
 20
36.6401789921584822
 30
0.0
 11
137.9296146925125868
 21
37.8876489921569117
 31
0.0
  0
ARC
  5
515
  8
0
 10
114.4714066925089071
 20
42.3626749921569683
 30
0.0
 40
0.5
 50
77.9999999998314308
 51
168.0000000000352998
  0
ARC
  5
516
  8
0
 10
111.5606426925086936
 20
28.668607992156609
 30
0.0
 40
0.5
 50
168.0000000000352998
 51
168.0887800555661045
  0
LINE
  5
517
  8
0
 10
120.4442476925113965
 20
41.6042779921555521
 30
0.0
 11
114.5753626925078947
 21
42.8517479921576196
 31
0.0
  0
ARC
  5
518
  8
0
 10
194.7872336925074137
 20
23.4183363914236615
 30
0.0
 40
0.5
 50
191.9999999999647002
 51
282.0000000001685976
  0
ARC
  5
519
  8
0
 10
207.5031526925095022
 20
26.1211883914221907
 30
0.0
 40
0.5
 50
282.0000000001685976
 51
11.9999999999647393
  0
LINE
  5
51A
  8
0
 10
204.6963446925082906
 20
39.3261803914248631
 30
0.0
 11
191.9804256925135064
 21
36.623328391422703
 31
0.0
  0
ARC
  5
51B
  8
0
 10
212.8459986925089993
 20
41.5696133914244967
 30
0.0
 40
0.5
 50
11.9999999999647393
 51
102.0000000001685976
  0
ARC
  5
51C
  8
0
 10
209.8878766925126911
 20
26.6280763914220806
 30
0.0
 40
0.5
 50
191.9999999999647002
 51
192.0606997630166859
  0
LINE
  5
51D
  8
0
 10
212.7420426925100116
 20
42.0586873914218486
 30
0.0
 11
206.8731566925135041
 21
40.8112163914230806
 31
0.0
  0
LINE
  5
51E
  8
0
 10
213.5429220552842082
 20
40.6957103847272776
 30
0.0
 11
213.3350716925133952
 21
41.6735693914235199
 31
0.0
  0
ARC
  5
51F
  8
0
 10
186.533624692507999
 20
21.663977391425
 30
0.0
 40
0.5
 50
191.9999999999647002
 51
192.033899678535704
  0
LINE
  5
520
  8
0
 10
189.3877906925125956
 20
37.0945873914244331
 30
0.0
 11
183.5189046925088121
 21
35.8471173914223726
 31
0.0
  0
CIRCLE
  5
521
  8
0
  6
CONTINUOUS
 10
32.6513388471003196
 20
109.6197951917893931
 30
0.0
 40
1.0
  0
CIRCLE
  5
522
  8
0
  6
CONTINUOUS
 10
91.0964888470998773
 20
107.9920328904918989
 30
0.0
 40
1.0
  0
CIRCLE
  5
523
  8
0
  6
CONTINUOUS
 10
173.1466888470976926
 20
100.8869951917914989
 30
0.0
 40
1.0
  0
CIRCLE
  5
524
  8
0
  6
CONTINUOUS
 10
113.5464888471042002
 20
84.2320328904899327
 30
0.0
 40
1.0
  0
CIRCLE
  5
525
  8
0
  6
CONTINUOUS
 10
42.1776888471004128
 20
42.9432961931235297
 30
0.0
 40
1.0
  0
CIRCLE
  5
526
  8
0
  6
CONTINUOUS
 10
127.1089888471042002
 20
42.1495951382532112
 30
0.0
 40
1.0
  0
CIRCLE
  5
527
  8
0
  6
CONTINUOUS
 10
256.1664258244646248
 20
111.332032889244303
 30
0.0
 40
1.0
  0
CIRCLE
  5
528
  8
0
  6
CONTINUOUS
 10
219.1836888471015925
 20
43.7369951917900366
 30
0.0
 40
1.0
  0
CIRCLE
  5
529
  8
0
  6
CONTINUOUS
 10
280.3026888471003986
 20
72.3119951917907713
 30
0.0
 40
1.0
  0
CIRCLE
  5
52A
  8
0
  6
CONTINUOUS
 10
346.9776888471033089
 20
47.7057930874035776
 30
0.0
 40
1.0
  0
CIRCLE
  5
52B
  8
0
  6
CONTINUOUS
 10
347.771688847097721
 20
109.6182951917909065
 30
0.0
 40
1.0
  0
LINE
  5
52C
  8
0
 10
364.6252064241643893
 20
97.4819881851655339
 30
0.0
 11
352.6252064271620839
 21
97.4819881851655339
 31
0.0
  0
LINE
  5
52D
  8
0
  6
CONTINUOUS
 10
370.5293388471046114
 20
62.9819881934164769
 30
0.0
 11
370.5295388470995022
 21
62.9819881934164769
 31
0.0
  0
POLYLINE
  5
52E
  8
0
  6
CONTINUOUS
 66
     1
 10
0.0
 20
0.0
 30
0.0
  0
VERTEX
  5
E50
  8
0
  6
CONTINUOUS
 10
224.5894220016934923
 20
43.5545849921583397
 30
0.0
 42
0.4142135623730951
  0
VERTEX
  5
E51
  8
0
  6
CONTINUOUS
 10
224.2043040467333128
 20
42.9615553463810613
 30
0.0
  0
VERTEX
  5
E52
  8
0
  6
CONTINUOUS
 10
224.7240832857214912
 20
40.5161866376403523
 30
0.0
  0
SEQEND
  5
E53
  8
0
  6
CONTINUOUS
  0
POLYLINE
  5
52F
  8
0
  6
CONTINUOUS
 66
     1
 10
0.0
 20
0.0
 30
0.0
  0
VERTEX
  5
E54
  8
0
  6
CONTINUOUS
 10
226.3873767240228858
 20
32.6910058130126018
 30
0.0
  0
VERTEX
  5
E55
  8
0
  6
CONTINUOUS
 10
215.7260567857601927
 20
30.424871980387401
 30
0.0
  0
VERTEX
  5
E56
  8
0
  6
CONTINUOUS
 10
216.4537478471038128
 20
27.001355191791081
 30
0.0
  0
SEQEND
  5
E57
  8
0
  6
CONTINUOUS
  0
POLYLINE
  5
530
  8
0
  6
CONTINUOUS
 66
     1
 10
0.0
 20
0.0
 30
0.0
  0
VERTEX
  5
E58
  8
0
  6
CONTINUOUS
 10
224.7240829701777045
 20
40.51618657056693
 30
0.0
  0
VERTEX
  5
E59
  8
0
  6
CONTINUOUS
 10
214.062763031907707
 20
38.2500527379417434
 30
0.0
  0
VERTEX
  5
E5A
  8
0
  6
CONTINUOUS
 10
213.5429838471036135
 20
40.6954211917910982
 30
0.0
  0
SEQEND
  5
E5B
  8
0
  6
CONTINUOUS
  0
POLYLINE
  5
531
  8
0
  6
CONTINUOUS
 66
     1
 10
0.0
 20
0.0
 30
0.0
 70
     1
  0
VERTEX
  5
E5C
  8
0
  6
CONTINUOUS
 10
116.2808638471042002
 20
131.2964451917906956
 30
0.0
 42
-0.4142135623730951
  0
VERTEX
  5
E5D
  8
0
  6
CONTINUOUS
 10
114.7808638471042002
 20
129.7964451917906956
 30
0.0
  0
VERTEX
  5
E5E
  8
0
  6
CONTINUOUS
 10
97.780863847104257
 20
129.7964451917906956
 30
0.0
 42
-0.4142135623730951
  0
VERTEX
  5
E5F
  8
0
  6
CONTINUOUS
 10
96.2808638471042428
 20
131.2964451917906956
 30
0.0
  0
VERTEX
  5
E60
  8
0
  6
CONTINUOUS
 10
96.2808638471042428
 20
132.2323701917885899
 30
0.0
 42
0.4142135623730951
  0
VERTEX
  5
E61
  8
0
  6
CONTINUOUS
 10
94.7808638471042428
 20
133.7323701917885899
 30
0.0
  0
VERTEX
  5
E62
  8
0
  6
CONTINUOUS
 10
71.4661150584588682
 20
133.7323701917885899
 30
0.0
 42
0.4142135623730951
  0
VERTEX
  5
E63
  8
0
  6
CONTINUOUS
 10
69.9661150584588682
 20
132.2323701917885899
 30
0.0
  0
VERTEX
  5
E64
  8
0
  6
CONTINUOUS
 10
69.9661150584588682
 20
131.2964451917906956
 30
0.0
 42
-0.4142135623730951
  0
VERTEX
  5
E65
  8
0
  6
CONTINUOUS
 10
68.4661150584588682
 20
129.7964451917906956
 30
0.0
  0
VERTEX
  5
E66
  8
0
  6
CONTINUOUS
 10
60.4661150817055528
 20
129.7964451917906956
 30
0.0
 42
-0.4142135623730951
  0
VERTEX
  5
E67
  8
0
  6
CONTINUOUS
 10
58.9661150817055528
 20
131.2964451917906956
 30
0.0
  0
VERTEX
  5
E68
  8
0
  6
CONTINUOUS
 10
58.9661150817055528
 20
132.2323701917885899
 30
0.0
 42
0.4142135623730951
  0
VERTEX
  5
E69
  8
0
  6
CONTINUOUS
 10
57.4661150817055528
 20
133.7323701917885899
 30
0.0
  0
VERTEX
  5
E6A
  8
0
  6
CONTINUOUS
 10
34.1513388471003196
 20
133.7323701917885899
 30
0.0
 42
0.4142135623730951
  0
VERTEX
  5
E6B
  8
0
  6
CONTINUOUS
 10
32.6513388471003196
 20
132.2323701917885899
 30
0.0
  0
VERTEX
  5
E6C
  8
0
  6
CONTINUOUS
 10
32.6513388471003196
 20
131.2964451917906956
 30
0.0
 42
-0.4142135623730951
  0
VERTEX
  5
E6D
  8
0
  6
CONTINUOUS
 10
31.1513388471003196
 20
129.7964451917906956
 30
0.0
  0
VERTEX
  5
E6E
  8
0
  6
CONTINUOUS
 10
20.3646388471034001
 20
129.7964451917906956
 30
0.0
 42
0.4142135623730951
  0
VERTEX
  5
E6F
  8
0
  6
CONTINUOUS
 10
18.3646388471033895
 20
127.7964451917906956
 30
0.0
  0
VERTEX
  5
E70
  8
0
  6
CONTINUOUS
 10
18.3646388471033895
 20
114.2964451918124951
 30
0.0
 42
-0.4142135623730951
  0
VERTEX
  5
E71
  8
0
  6
CONTINUOUS
 10
16.8646388471033895
 20
112.7964451918124951
 30
0.0
  0
VERTEX
  5
E72
  8
0
  6
CONTINUOUS
 10
15.3646135760873292
 20
112.7964451918124951
 30
0.0
 42
0.4142135623730951
  0
VERTEX
  5
E73
  8
0
  6
CONTINUOUS
 10
13.8646135760873292
 20
111.2964451918124951
 30
0.0
  0
VERTEX
  5
E74
  8
0
  6
CONTINUOUS
 10
13.8646135760873292
 20
88.6069451917902882
 30
0.0
 42
0.4142135623730951
  0
VERTEX
  5
E75
  8
0
  6
CONTINUOUS
 10
15.3646135760873292
 20
87.106945191790274
 30
0.0
  0
VERTEX
  5
E76
  8
0
  6
CONTINUOUS
 10
16.8646388471033895
 20
87.106945191790274
 30
0.0
 42
-0.4142135623730951
  0
VERTEX
  5
E77
  8
0
  6
CONTINUOUS
 10
18.3646388471033895
 20
85.606945191790274
 30
0.0
  0
VERTEX
  5
E78
  8
0
  6
CONTINUOUS
 10
18.3646388471033895
 20
77.6069451917902882
 30
0.0
 42
-0.4142135623730951
  0
VERTEX
  5
E79
  8
0
  6
CONTINUOUS
 10
16.8646388471033895
 20
76.1069451917902882
 30
0.0
  0
VERTEX
  5
E7A
  8
0
  6
CONTINUOUS
 10
15.3646388471033895
 20
76.1069451917902882
 30
0.0
 42
0.4142135623730951
  0
VERTEX
  5
E7B
  8
0
  6
CONTINUOUS
 10
13.8646388471033895
 20
74.606945191790274
 30
0.0
  0
VERTEX
  5
E7C
  8
0
  6
CONTINUOUS
 10
13.8646388471033895
 20
51.9174451917898878
 30
0.0
 42
0.4142135623730951
  0
VERTEX
  5
E7D
  8
0
  6
CONTINUOUS
 10
15.3646388471033895
 20
50.4174451917898878
 30
0.0
  0
VERTEX
  5
E7E
  8
0
  6
CONTINUOUS
 10
16.8646388471033895
 20
50.4174451917898878
 30
0.0
 42
-0.4142135623730951
  0
VERTEX
  5
E7F
  8
0
  6
CONTINUOUS
 10
18.3646388471033895
 20
48.9174451917898807
 30
0.0
  0
VERTEX
  5
E80
  8
0
  6
CONTINUOUS
 10
18.3646388471033895
 20
35.4174451917898878
 30
0.0
 42
0.4142135623730951
  0
VERTEX
  5
E81
  8
0
  6
CONTINUOUS
 10
20.3646388471034001
 20
33.4174451917898878
 30
0.0
  0
VERTEX
  5
E82
  8
0
  6
CONTINUOUS
 10
35.7714388471004199
 20
33.4174451917898878
 30
0.0
 42
-0.4142135623730951
  0
VERTEX
  5
E83
  8
0
  6
CONTINUOUS
 10
37.2714388471004128
 20
31.9174451917898914
 30
0.0
  0
VERTEX
  5
E84
  8
0
  6
CONTINUOUS
 10
37.2714388471004128
 20
30.4173701917899599
 30
0.0
 42
0.4142135623730951
  0
VERTEX
  5
E85
  8
0
  6
CONTINUOUS
 10
38.7714388471004128
 20
28.9173701917899706
 30
0.0
  0
VERTEX
  5
E86
  8
0
  6
CONTINUOUS
 10
72.4648433296834042
 20
28.9173701917899706
 30
0.0
 42
0.3541176769288462
  0
VERTEX
  5
E87
  8
0
  6
CONTINUOUS
 10
73.9320637380306067
 20
30.105497985059781
 30
0.0
  0
VERTEX
  5
E88
  8
0
  6
CONTINUOUS
 10
74.3254178163779358
 20
31.9560544598027008
 30
0.0
 42
-0.4142135623730951
  0
VERTEX
  5
E89
  8
0
  6
CONTINUOUS
 10
76.1045104314553242
 20
33.1114026614197101
 30
0.0
  0
VERTEX
  5
E8A
  8
0
  6
CONTINUOUS
 10
76.6293388471031136
 20
32.9998451917892126
 30
0.0
  0
VERTEX
  5
E8B
  8
0
  6
CONTINUOUS
 10
93.7111553310178351
 20
29.3689361807848108
 30
0.0
 42
-0.4142135623731115
  0
VERTEX
  5
E8C
  8
0
  6
CONTINUOUS
 10
94.8665035326348658
 20
27.5898435657074188
 30
0.0
  0
VERTEX
  5
E8D
  8
0
  6
CONTINUOUS
 10
94.554606301965606
 20
26.1225054308198814
 30
0.0
 42
0.4142158533727706
  0
VERTEX
  5
E8E
  8
0
  6
CONTINUOUS
 10
95.7099659801251761
 20
24.3434103763358216
 30
0.0
  0
VERTEX
  5
E8F
  8
0
  6
CONTINUOUS
 10
148.7637142339380887
 20
13.0667452842173208
 30
0.0
 42
0.4142135623730789
  0
VERTEX
  5
E90
  8
0
  6
CONTINUOUS
 10
150.5427978118831902
 20
14.2221074017799403
 30
0.0
  0
VERTEX
  5
E91
  8
0
  6
CONTINUOUS
 10
150.8546932267281022
 20
15.6894934317462305
 30
0.0
 42
-0.4141993712719012
  0
VERTEX
  5
E92
  8
0
  6
CONTINUOUS
 10
152.633705714871212
 20
16.8448706577693486
 30
0.0
  0
VERTEX
  5
E93
  8
0
  6
CONTINUOUS
 10
165.0384545773204081
 20
14.2088482112559706
 30
0.0
 42
0.105084852514873
  0
VERTEX
  5
E94
  8
0
  6
CONTINUOUS
 10
165.8699513232722893
 20
14.2088604745005505
 30
0.0
  0
VERTEX
  5
E95
  8
0
  6
CONTINUOUS
 10
179.347372729608594
 20
17.0732424828276308
 30
0.0
 42
-0.4142135623730951
  0
VERTEX
  5
E96
  8
0
  6
CONTINUOUS
 10
181.1264344074598114
 20
15.9178466431259604
 30
0.0
  0
VERTEX
  5
E97
  8
0
  6
CONTINUOUS
 10
181.4382782557740939
 20
14.4505664603495099
 30
0.0
 42
0.4142135623730951
  0
VERTEX
  5
E98
  8
0
  6
CONTINUOUS
 10
183.2173399336251975
 20
13.2951706206478395
 30
0.0
  0
VERTEX
  5
E99
  8
0
  6
CONTINUOUS
 10
235.2031478233921007
 20
24.3438132591910907
 30
0.0
 42
0.4142205624550133
  0
VERTEX
  5
E9A
  8
0
  6
CONTINUOUS
 10
236.3585362099557017
 20
26.1229100033053001
 30
0.0
  0
VERTEX
  5
E9B
  8
0
  6
CONTINUOUS
 10
236.0466000216264888
 20
27.5904521783233285
 30
0.0
 42
-0.4142135623713414
  0
VERTEX
  5
E9C
  8
0
  6
CONTINUOUS
 10
237.2019533419233994
 20
29.369541469295811
 30
0.0
  0
VERTEX
  5
E9D
  8
0
  6
CONTINUOUS
 10
246.2875388471011036
 20
31.30074519179486
 30
0.0
  0
VERTEX
  5
E9E
  8
0
  6
CONTINUOUS
 10
254.8086791560135964
 20
33.1119722035365669
 30
0.0
 42
-0.4142205624567668
  0
VERTEX
  5
E9F
  8
0
  6
CONTINUOUS
 10
256.5877759001314189
 20
31.9565838169730014
 30
0.0
  0
VERTEX
  5
EA0
  8
0
  6
CONTINUOUS
 10
256.9811823432547158
 20
30.1055372727170507
 30
0.0
 42
0.3541252106095429
  0
VERTEX
  5
EA1
  8
0
  6
CONTINUOUS
 10
258.4484111020291834
 20
28.9173701917899706
 30
0.0
  0
VERTEX
  5
EA2
  8
0
  6
CONTINUOUS
 10
283.7089388471003986
 20
28.9173701917899706
 30
0.0
 42
0.4142135623730951
  0
VERTEX
  5
EA3
  8
0
  6
CONTINUOUS
 10
285.2089388471003986
 20
30.4173701917899599
 30
0.0
  0
VERTEX
  5
EA4
  8
0
  6
CONTINUOUS
 10
285.2089388471003986
 20
31.9174451917898914
 30
0.0
 42
-0.4142135623730951
  0
VERTEX
  5
EA5
  8
0
  6
CONTINUOUS
 10
286.7089388471003986
 20
33.4174451917898878
 30
0.0
  0
VERTEX
  5
EA6
  8
0
  6
CONTINUOUS
 10
304.1175388471028782
 20
33.4174451917898878
 30
0.0
  0
VERTEX
  5
EA7
  8
0
  6
CONTINUOUS
 10
306.8775388470975827
 20
33.4174451917898878
 30
0.0
 42
-0.4142135623730951
  0
VERTEX
  5
EA8
  8
0
  6
CONTINUOUS
 10
308.8775388470975827
 20
31.4174451917898914
 30
0.0
  0
VERTEX
  5
EA9
  8
0
  6
CONTINUOUS
 10
308.8775388470975827
 20
30.6535451917917889
 30
0.0
 42
0.4142135623730951
  0
VERTEX
  5
EAA
  8
0
  6
CONTINUOUS
 10
310.8775388470975827
 20
28.6535451917917889
 30
0.0
  0
VERTEX
  5
EAB
  8
0
  6
CONTINUOUS
 10
364.0295388470995022
 20
28.6535451917917889
 30
0.0
 42
0.4142135623730951
  0
VERTEX
  5
EAC
  8
0
  6
CONTINUOUS
 10
366.0295388470995022
 20
30.6535451917917889
 30
0.0
  0
VERTEX
  5
EAD
  8
0
  6
CONTINUOUS
 10
366.0295388470995022
 20
44.1219230476600899
 30
0.0
 42
-0.4142135623730951
  0
VERTEX
  5
EAE
  8
0
  6
CONTINUOUS
 10
367.5295388470995022
 20
45.621923047660097
 30
0.0
  0
VERTEX
  5
EAF
  8
0
  6
CONTINUOUS
 10
369.0293388471046114
 20
45.621923047660097
 30
0.0
 42
0.4142135623730951
  0
VERTEX
  5
EB0
  8
0
  6
CONTINUOUS
 10
370.5293388471046114
 20
47.1219230476600899
 30
0.0
  0
VERTEX
  5
EB1
  8
0
  6
CONTINUOUS
 10
370.5293388471046114
 20
64.5519556164146309
 30
0.0
 42
0.4142135623730951
  0
VERTEX
  5
EB2
  8
0
  6
CONTINUOUS
 10
369.0293388471046114
 20
66.0519556164146309
 30
0.0
  0
VERTEX
  5
EB3
  8
0
  6
CONTINUOUS
 10
367.5295388470995022
 20
66.0519556164146309
 30
0.0
 42
-0.4142135623730951
  0
VERTEX
  5
EB4
  8
0
  6
CONTINUOUS
 10
366.0295388470995022
 20
67.5519556164146309
 30
0.0
  0
VERTEX
  5
EB5
  8
0
  6
CONTINUOUS
 10
366.0295388470995022
 20
75.5519556164146309
 30
0.0
 42
-0.4142135623730951
  0
VERTEX
  5
EB6
  8
0
  6
CONTINUOUS
 10
367.5295388470995022
 20
77.0519556164146309
 30
0.0
  0
VERTEX
  5
EB7
  8
0
  6
CONTINUOUS
 10
369.0293388471046114
 20
77.0519556164146309
 30
0.0
 42
0.4142135623730951
  0
VERTEX
  5
EB8
  8
0
  6
CONTINUOUS
 10
370.5293388471046114
 20
78.5519556164146309
 30
0.0
  0
VERTEX
  5
EB9
  8
0
  6
CONTINUOUS
 10
370.5293388471046114
 20
95.9819881851655339
 30
0.0
 42
0.4142135623730951
  0
VERTEX
  5
EBA
  8
0
  6
CONTINUOUS
 10
369.0293388471046114
 20
97.4819881851655339
 30
0.0
  0
VERTEX
  5
EBB
  8
0
  6
CONTINUOUS
 10
352.1252064271620839
 20
97.4819881851655339
 30
0.0
 42
-0.4142135623730951
  0
VERTEX
  5
EBC
  8
0
  6
CONTINUOUS
 10
350.6252064271620839
 20
98.9819881851655339
 30
0.0
  0
VERTEX
  5
EBD
  8
0
  6
CONTINUOUS
 10
350.6252064271620839
 20
102.4819881839139981
 30
0.0
  0
VERTEX
  5
EBE
  8
0
  6
CONTINUOUS
 10
350.6252064271620839
 20
130.2964451917906956
 30
0.0
  0
VERTEX
  5
EBF
  8
0
  6
CONTINUOUS
 10
350.6252064271620839
 20
132.2323701917885899
 30
0.0
 42
0.4142135623730951
  0
VERTEX
  5
EC0
  8
0
  6
CONTINUOUS
 10
349.1252064271620839
 20
133.7323701917885899
 30
0.0
  0
VERTEX
  5
EC1
  8
0
  6
CONTINUOUS
 10
312.0950463405325195
 20
133.7323701917885899
 30
0.0
 42
0.4142135623730951
  0
VERTEX
  5
EC2
  8
0
  6
CONTINUOUS
 10
310.5950463405325195
 20
132.2323701917885899
 30
0.0
  0
VERTEX
  5
EC3
  8
0
  6
CONTINUOUS
 10
310.5950463405325195
 20
131.2964451917906956
 30
0.0
 42
-0.4142135623730951
  0
VERTEX
  5
EC4
  8
0
  6
CONTINUOUS
 10
309.0950463405325195
 20
129.7964451917906956
 30
0.0
  0
VERTEX
  5
EC5
  8
0
  6
CONTINUOUS
 10
301.0950463405325195
 20
129.7964451917906956
 30
0.0
 42
-0.4142135623730951
  0
VERTEX
  5
EC6
  8
0
  6
CONTINUOUS
 10
299.5950463405325195
 20
131.2964451917906956
 30
0.0
  0
VERTEX
  5
EC7
  8
0
  6
CONTINUOUS
 10
299.5950463405325195
 20
132.2323701917885899
 30
0.0
 42
0.4142135623730951
  0
VERTEX
  5
EC8
  8
0
  6
CONTINUOUS
 10
298.0950463405325195
 20
133.7323701917885899
 30
0.0
  0
VERTEX
  5
EC9
  8
0
  6
CONTINUOUS
 10
261.0648862538956223
 20
133.7323701917885899
 30
0.0
 42
0.4142135623730951
  0
VERTEX
  5
ECA
  8
0
  6
CONTINUOUS
 10
259.5648862538955086
 20
132.2323701917885899
 30
0.0
  0
VERTEX
  5
ECB
  8
0
  6
CONTINUOUS
 10
259.5648862538955086
 20
131.2964451917906956
 30
0.0
 42
-0.4142135623730951
  0
VERTEX
  5
ECC
  8
0
  6
CONTINUOUS
 10
258.0648862538956223
 20
129.7964451917906956
 30
0.0
  0
VERTEX
  5
ECD
  8
0
  6
CONTINUOUS
 10
241.0648862538955086
 20
129.7964451917906956
 30
0.0
 42
-0.4142135623730951
  0
VERTEX
  5
ECE
  8
0
  6
CONTINUOUS
 10
239.5648862538955939
 20
131.2964451917906956
 30
0.0
  0
VERTEX
  5
ECF
  8
0
  6
CONTINUOUS
 10
239.5648862538955939
 20
132.2323701917885899
 30
0.0
 42
0.4142135623730951
  0
VERTEX
  5
ED0
  8
0
  6
CONTINUOUS
 10
238.0648862538955939
 20
133.7323701917885899
 30
0.0
  0
VERTEX
  5
ED1
  8
0
  6
CONTINUOUS
 10
184.922875050499897
 20
133.7323701917885899
 30
0.0
 42
0.4142135623730951
  0
VERTEX
  5
ED2
  8
0
  6
CONTINUOUS
 10
183.422875050499897
 20
132.2323701917885899
 30
0.0
  0
VERTEX
  5
ED3
  8
0
  6
CONTINUOUS
 10
183.422875050499897
 20
131.2964451917906956
 30
0.0
 42
-0.4142135623730951
  0
VERTEX
  5
ED4
  8
0
  6
CONTINUOUS
 10
181.922875050499897
 20
129.7964451917906956
 30
0.0
  0
VERTEX
  5
ED5
  8
0
  6
CONTINUOUS
 10
173.922875050499897
 20
129.7964451917906956
 30
0.0
 42
-0.4142135623730951
  0
VERTEX
  5
ED6
  8
0
  6
CONTINUOUS
 10
172.422875050499897
 20
131.2964451917906956
 30
0.0
  0
VERTEX
  5
ED7
  8
0
  6
CONTINUOUS
 10
172.422875050499897
 20
132.2323701917885899
 30
0.0
 42
0.4142135623730951
  0
VERTEX
  5
ED8
  8
0
  6
CONTINUOUS
 10
170.922875050499897
 20
133.7323701917885899
 30
0.0
  0
VERTEX
  5
ED9
  8
0
  6
CONTINUOUS
 10
117.7808638471042002
 20
133.7323701917885899
 30
0.0
 42
0.4142135623730951
  0
VERTEX
  5
EDA
  8
0
  6
CONTINUOUS
 10
116.2808638471042002
 20
132.2323701917885899
 30
0.0
  0
SEQEND
  5
EDB
  8
0
  6
CONTINUOUS
  0
POLYLINE
  5
533
  8
0
 66
     1
 10
0.0
 20
0.0
 30
0.0
 70
     1
  0
VERTEX
  5
EDC
  8
0
 10
73.2776888470989576
 20
126.5957951917917939
 30
0.0
  0
VERTEX
  5
EDD
  8
0
 10
73.2776888470989576
 20
113.5957951917917939
 30
0.0
 42
0.4142135623730951
  0
VERTEX
  5
EDE
  8
0
 10
73.7776888470989576
 20
113.0957951917917939
 30
0.0
  0
VERTEX
  5
EDF
  8
0
 10
86.7776888470989576
 20
113.0957951917917939
 30
0.0
 42
0.4142135623730951
  0
VERTEX
  5
EE0
  8
0
 10
87.2776888470989434
 20
113.5957951917917939
 30
0.0
  0
VERTEX
  5
EE1
  8
0
 10
87.2776888470989434
 20
126.5957951917917939
 30
0.0
 42
0.4142135623730951
  0
VERTEX
  5
EE2
  8
0
 10
86.7776888470989576
 20
127.0957951917917939
 30
0.0
  0
VERTEX
  5
EE3
  8
0
 10
73.7776888470989576
 20
127.0957951917917939
 30
0.0
 42
0.4142135623730951
  0
SEQEND
  5
EE4
  8
0
  0
POLYLINE
  5
534
  8
0
 66
     1
 10
0.0
 20
0.0
 30
0.0
 70
     1
  0
VERTEX
  5
EE5
  8
0
 10
259.0151888471019106
 20
126.5957951917917939
 30
0.0
  0
VERTEX
  5
EE6
  8
0
 10
259.0151888471019106
 20
113.5957951917917939
 30
0.0
 42
0.4142135623730951
  0
VERTEX
  5
EE7
  8
0
 10
259.5151888471017969
 20
113.0957951917917939
 30
0.0
  0
VERTEX
  5
EE8
  8
0
 10
272.5151888471017969
 20
113.0957951917917939
 30
0.0
 42
0.4142135623730951
  0
VERTEX
  5
EE9
  8
0
 10
273.0151888471019106
 20
113.5957951917917939
 30
0.0
  0
VERTEX
  5
EEA
  8
0
 10
273.0151888471019106
 20
126.5957951917917939
 30
0.0
 42
0.4142135623730951
  0
VERTEX
  5
EEB
  8
0
 10
272.5151888471017969
 20
127.0957951917917939
 30
0.0
  0
VERTEX
  5
EEC
  8
0
 10
259.5151888471017969
 20
127.0957951917917939
 30
0.0
 42
0.4142135623730951
  0
SEQEND
  5
EED
  8
0
  0
POLYLINE
  5
535
  8
0
 66
     1
 10
0.0
 20
0.0
 30
0.0
 70
     1
  0
VERTEX
  5
EEE
  8
0
 10
35.1776888471004128
 20
125.6432951917887948
 30
0.0
  0
VERTEX
  5
EEF
  8
0
 10
35.1776888471004128
 20
112.6432951917886953
 30
0.0
 42
0.4142135623730951
  0
VERTEX
  5
EF0
  8
0
 10
35.6776888471004128
 20
112.1432951917887948
 30
0.0
  0
VERTEX
  5
EF1
  8
0
 10
48.6776888471004128
 20
112.1432951917887948
 30
0.0
 42
0.4142135623730951
  0
VERTEX
  5
EF2
  8
0
 10
49.1776888471004128
 20
112.6432951917886953
 30
0.0
  0
VERTEX
  5
EF3
  8
0
 10
49.1776888471004128
 20
125.6432951917887948
 30
0.0
 42
0.4142135623730951
  0
VERTEX
  5
EF4
  8
0
 10
48.6776888471004128
 20
126.1432951917886953
 30
0.0
  0
VERTEX
  5
EF5
  8
0
 10
35.6776888471004128
 20
126.1432951917886953
 30
0.0
 42
0.4142135623730951
  0
SEQEND
  5
EF6
  8
0
  0
POLYLINE
  5
536
  8
0
 66
     1
 10
0.0
 20
0.0
 30
0.0
 70
     1
  0
VERTEX
  5
EF7
  8
0
 10
54.2276888471033303
 20
125.6432951917887948
 30
0.0
  0
VERTEX
  5
EF8
  8
0
 10
54.2276888471033303
 20
112.6432951917886953
 30
0.0
 42
0.4142135623730951
  0
VERTEX
  5
EF9
  8
0
 10
54.7276888471033232
 20
112.1432951917887948
 30
0.0
  0
VERTEX
  5
EFA
  8
0
 10
67.7276888471033232
 20
112.1432951917887948
 30
0.0
 42
0.4142135623730951
  0
VERTEX
  5
EFB
  8
0
 10
68.2276888471033232
 20
112.6432951917886953
 30
0.0
  0
VERTEX
  5
EFC
  8
0
 10
68.2276888471033232
 20
125.6432951917887948
 30
0.0
 42
0.4142135623730951
  0
VERTEX
  5
EFD
  8
0
 10
67.7276888471033232
 20
126.1432951917886953
 30
0.0
  0
VERTEX
  5
EFE
  8
0
 10
54.7276888471033232
 20
126.1432951917886953
 30
0.0
 42
0.4142135623730951
  0
SEQEND
  5
EFF
  8
0
  0
POLYLINE
  5
537
  8
0
 66
     1
 10
0.0
 20
0.0
 30
0.0
 70
     1
  0
VERTEX
  5
F00
  8
0
 10
278.065188847104821
 20
125.6432951917887948
 30
0.0
  0
VERTEX
  5
F01
  8
0
 10
278.065188847104821
 20
112.6432951917886953
 30
0.0
 42
0.4142135623731117
  0
VERTEX
  5
F02
  8
0
 10
278.5651888471047073
 20
112.1432951917887948
 30
0.0
  0
VERTEX
  5
F03
  8
0
 10
291.565188847104821
 20
112.1432951917887948
 30
0.0
 42
0.4142135623730951
  0
VERTEX
  5
F04
  8
0
 10
292.065188847104821
 20
112.6432951917886953
 30
0.0
  0
VERTEX
  5
F05
  8
0
 10
292.065188847104821
 20
125.6432951917887948
 30
0.0
 42
0.4142135623730951
  0
VERTEX
  5
F06
  8
0
 10
291.565188847104821
 20
126.1432951917886953
 30
0.0
  0
VERTEX
  5
F07
  8
0
 10
278.5651888471047073
 20
126.1432951917886953
 30
0.0
 42
0.4142135623730951
  0
SEQEND
  5
F08
  8
0
  0
POLYLINE
  5
538
  8
0
 66
     1
 10
0.0
 20
0.0
 30
0.0
 70
     1
  0
VERTEX
  5
F09
  8
0
 10
329.0781888471037746
 20
111.6432951917887948
 30
0.0
  0
VERTEX
  5
F0A
  8
0
 10
329.0781888471037746
 20
112.1432951917887948
 30
0.0
  0
VERTEX
  5
F0B
  8
0
 10
329.6651888471033089
 20
112.1432951917887948
 30
0.0
 42
0.4142135623730951
  0
VERTEX
  5
F0C
  8
0
 10
330.1651888471033089
 20
112.6432951917886953
 30
0.0
  0
VERTEX
  5
F0D
  8
0
 10
330.1651888471033089
 20
125.6432951917887948
 30
0.0
 42
0.4142135623730951
  0
VERTEX
  5
F0E
  8
0
 10
329.6651888471033089
 20
126.1432951917886953
 30
0.0
  0
VERTEX
  5
F0F
  8
0
 10
328.5781888471037746
 20
126.1432951917886953
 30
0.0
  0
VERTEX
  5
F10
  8
0
 10
322.5781888471037746
 20
126.1432951917886953
 30
0.0
  0
VERTEX
  5
F11
  8
0
 10
320.1401888471019106
 20
126.1432951917886953
 30
0.0
  0
VERTEX
  5
F12
  8
0
 10
316.6651888471033089
 20
126.1432951917886953
 30
0.0
  0
VERTEX
  5
F13
  8
0
 10
310.6151888471003986
 20
126.1432951917886953
 30
0.0
  0
VERTEX
  5
F14
  8
0
 10
307.1401888471019106
 20
126.1432951917886953
 30
0.0
  0
VERTEX
  5
F15
  8
0
 10
304.7021888470998761
 20
126.1432951917886953
 30
0.0
  0
VERTEX
  5
F16
  8
0
 10
298.7021888470998761
 20
126.1432951917886953
 30
0.0
  0
VERTEX
  5
F17
  8
0
 10
297.6151888471003986
 20
126.1432951917886953
 30
0.0
 42
0.4142135623730951
  0
VERTEX
  5
F18
  8
0
 10
297.1151888471003986
 20
125.6432951917887948
 30
0.0
  0
VERTEX
  5
F19
  8
0
 10
297.1151888471003986
 20
112.6432951917886953
 30
0.0
 42
0.4142135623731117
  0
VERTEX
  5
F1A
  8
0
 10
297.6151888471003986
 20
112.1432951917887948
 30
0.0
  0
VERTEX
  5
F1B
  8
0
 10
298.2021888470998761
 20
112.1432951917887948
 30
0.0
  0
VERTEX
  5
F1C
  8
0
 10
298.2021888470998761
 20
111.6432951917887948
 30
0.0
 42
0.4142135623730951
  0
VERTEX
  5
F1D
  8
0
 10
298.7021888470998761
 20
111.1432951917887948
 30
0.0
  0
VERTEX
  5
F1E
  8
0
 10
304.7021888470998761
 20
111.1432951917887948
 30
0.0
 42
0.4142135623730951
  0
VERTEX
  5
F1F
  8
0
 10
305.2021888470998761
 20
111.6432951917887948
 30
0.0
  0
VERTEX
  5
F20
  8
0
 10
305.2021888470998761
 20
112.1432951917887948
 30
0.0
  0
VERTEX
  5
F21
  8
0
 10
307.1401888471019106
 20
112.1432951917887948
 30
0.0
  0
VERTEX
  5
F22
  8
0
 10
310.6151888471003986
 20
112.1432951917887948
 30
0.0
  0
VERTEX
  5
F23
  8
0
 10
316.6651888471033089
 20
112.1432951917887948
 30
0.0
  0
VERTEX
  5
F24
  8
0
 10
320.1401888471019106
 20
112.1432951917887948
 30
0.0
  0
VERTEX
  5
F25
  8
0
 10
322.0781888471037746
 20
112.1432951917887948
 30
0.0
  0
VERTEX
  5
F26
  8
0
 10
322.0781888471037746
 20
111.6432951917887948
 30
0.0
 42
0.4142135623730951
  0
VERTEX
  5
F27
  8
0
 10
322.5781888471037746
 20
111.1432951917887948
 30
0.0
  0
VERTEX
  5
F28
  8
0
 10
328.5781888471037746
 20
111.1432951917887948
 30
0.0
 42
0.4142135623730951
  0
SEQEND
  5
F29
  8
0
  0
POLYLINE
  5
539
  8
0
 66
     1
 10
0.0
 20
0.0
 30
0.0
 70
     1
  0
VERTEX
  5
F2A
  8
0
 10
254.2526888471047926
 20
107.5457951917888977
 30
0.0
  0
VERTEX
  5
F2B
  8
0
 10
254.2526888471047926
 20
94.5457951917889261
 30
0.0
 42
0.4142135623730951
  0
VERTEX
  5
F2C
  8
0
 10
254.7526888471047926
 20
94.0457951917889261
 30
0.0
  0
VERTEX
  5
F2D
  8
0
 10
267.752688847104821
 20
94.0457951917889261
 30
0.0
 42
0.4142135623730951
  0
VERTEX
  5
F2E
  8
0
 10
268.252688847104821
 20
94.5457951917889261
 30
0.0
  0
VERTEX
  5
F2F
  8
0
 10
268.252688847104821
 20
107.5457951917888977
 30
0.0
 42
0.4142135623730951
  0
VERTEX
  5
F30
  8
0
 10
267.752688847104821
 20
108.0457951917888977
 30
0.0
  0
VERTEX
  5
F31
  8
0
 10
254.7526888471047926
 20
108.0457951917888977
 30
0.0
 42
0.4142135623730951
  0
SEQEND
  5
F32
  8
0
  0
POLYLINE
  5
53A
  8
0
 66
     1
 10
0.0
 20
0.0
 30
0.0
 70
     1
  0
VERTEX
  5
F33
  8
0
 10
35.1776888471004128
 20
106.593295191789494
 30
0.0
  0
VERTEX
  5
F34
  8
0
 10
35.1776888471004128
 20
93.5932951917895082
 30
0.0
 42
0.4142135623730951
  0
VERTEX
  5
F35
  8
0
 10
35.6776888471004128
 20
93.093295191789494
 30
0.0
  0
VERTEX
  5
F36
  8
0
 10
48.6776888471004128
 20
93.093295191789494
 30
0.0
 42
0.4142135623730951
  0
VERTEX
  5
F37
  8
0
 10
49.1776888471004128
 20
93.5932951917895082
 30
0.0
  0
VERTEX
  5
F38
  8
0
 10
49.1776888471004128
 20
106.593295191789494
 30
0.0
 42
0.4142135623730951
  0
VERTEX
  5
F39
  8
0
 10
48.6776888471004128
 20
107.093295191789494
 30
0.0
  0
VERTEX
  5
F3A
  8
0
 10
35.6776888471004128
 20
107.093295191789494
 30
0.0
 42
0.4142135623730951
  0
SEQEND
  5
F3B
  8
0
  0
POLYLINE
  5
53B
  8
0
 66
     1
 10
0.0
 20
0.0
 30
0.0
 70
     1
  0
VERTEX
  5
F3C
  8
0
 10
58.9901888471004128
 20
106.593295191789494
 30
0.0
  0
VERTEX
  5
F3D
  8
0
 10
58.9901888471004128
 20
93.5932951917895082
 30
0.0
 42
0.4142135623730951
  0
VERTEX
  5
F3E
  8
0
 10
59.4901888471004128
 20
93.093295191789494
 30
0.0
  0
VERTEX
  5
F3F
  8
0
 10
72.4901888471004128
 20
93.093295191789494
 30
0.0
 42
0.4142135623730951
  0
VERTEX
  5
F40
  8
0
 10
72.9901888471004128
 20
93.5932951917895082
 30
0.0
  0
VERTEX
  5
F41
  8
0
 10
72.9901888471004128
 20
106.593295191789494
 30
0.0
 42
0.4142135623730951
  0
VERTEX
  5
F42
  8
0
 10
72.4901888471004128
 20
107.093295191789494
 30
0.0
  0
VERTEX
  5
F43
  8
0
 10
59.4901888471004128
 20
107.093295191789494
 30
0.0
 42
0.4142135623730951
  0
SEQEND
  5
F44
  8
0
  0
POLYLINE
  5
53C
  8
0
 66
     1
 10
0.0
 20
0.0
 30
0.0
 70
     1
  0
VERTEX
  5
F45
  8
0
 10
273.3026888471003986
 20
106.593295191789494
 30
0.0
  0
VERTEX
  5
F46
  8
0
 10
273.3026888471003986
 20
93.5932951917895082
 30
0.0
 42
0.4142135623730951
  0
VERTEX
  5
F47
  8
0
 10
273.8026888471003986
 20
93.093295191789494
 30
0.0
  0
VERTEX
  5
F48
  8
0
 10
286.8026888471003986
 20
93.093295191789494
 30
0.0
 42
0.4142135623730951
  0
VERTEX
  5
F49
  8
0
 10
287.3026888471003986
 20
93.5932951917895082
 30
0.0
  0
VERTEX
  5
F4A
  8
0
 10
287.3026888471003986
 20
106.593295191789494
 30
0.0
 42
0.4142135623730951
  0
VERTEX
  5
F4B
  8
0
 10
286.8026888471003986
 20
107.093295191789494
 30
0.0
  0
VERTEX
  5
F4C
  8
0
 10
273.8026888471003986
 20
107.093295191789494
 30
0.0
 42
0.4142135623730951
  0
SEQEND
  5
F4D
  8
0
  0
POLYLINE
  5
53D
  8
0
 66
     1
 10
0.0
 20
0.0
 30
0.0
 70
     1
  0
VERTEX
  5
F4E
  8
0
 10
292.3526888471033089
 20
106.593295191789494
 30
0.0
  0
VERTEX
  5
F4F
  8
0
 10
292.3526888471033089
 20
93.5932951917895082
 30
0.0
 42
0.4142135623730951
  0
VERTEX
  5
F50
  8
0
 10
292.8526888471033089
 20
93.093295191789494
 30
0.0
  0
VERTEX
  5
F51
  8
0
 10
305.8526888471033089
 20
93.093295191789494
 30
0.0
 42
0.4142135623730951
  0
VERTEX
  5
F52
  8
0
 10
306.3526888471033089
 20
93.5932951917895082
 30
0.0
  0
VERTEX
  5
F53
  8
0
 10
306.3526888471033089
 20
106.593295191789494
 30
0.0
 42
0.4142135623730951
  0
VERTEX
  5
F54
  8
0
 10
305.8526888471033089
 20
107.093295191789494
 30
0.0
  0
VERTEX
  5
F55
  8
0
 10
292.8526888471033089
 20
107.093295191789494
 30
0.0
 42
0.4142135623730951
  0
SEQEND
  5
F56
  8
0
  0
POLYLINE
  5
53E
  8
0
 66
     1
 10
0.0
 20
0.0
 30
0.0
 70
     1
  0
VERTEX
  5
F57
  8
0
 10
316.1651888471033089
 20
106.593295191789494
 30
0.0
  0
VERTEX
  5
F58
  8
0
 10
316.1651888471033089
 20
93.5932951917895082
 30
0.0
 42
0.4142135623730951
  0
VERTEX
  5
F59
  8
0
 10
316.6651888471033089
 20
93.093295191789494
 30
0.0
  0
VERTEX
  5
F5A
  8
0
 10
329.6651888471033089
 20
93.093295191789494
 30
0.0
 42
0.4142135623730951
  0
VERTEX
  5
F5B
  8
0
 10
330.1651888471033089
 20
93.5932951917895082
 30
0.0
  0
VERTEX
  5
F5C
  8
0
 10
330.1651888471033089
 20
106.593295191789494
 30
0.0
 42
0.4142135623730951
  0
VERTEX
  5
F5D
  8
0
 10
329.6651888471033089
 20
107.093295191789494
 30
0.0
  0
VERTEX
  5
F5E
  8
0
 10
316.6651888471033089
 20
107.093295191789494
 30
0.0
 42
0.4142135623730951
  0
SEQEND
  5
F5F
  8
0
  0
POLYLINE
  5
53F
  8
0
 66
     1
 10
0.0
 20
0.0
 30
0.0
 70
     1
  0
VERTEX
  5
F60
  8
0
 10
46.796438847101868
 20
87.5432951917902358
 30
0.0
 42
0.4142135623730951
  0
VERTEX
  5
F61
  8
0
 10
46.2964388471018609
 20
88.0432951917902358
 30
0.0
  0
VERTEX
  5
F62
  8
0
 10
41.5339388471047712
 20
88.0432951917902358
 30
0.0
  0
VERTEX
  5
F63
  8
0
 10
33.296438847101868
 20
88.0432951917902358
 30
0.0
  0
VERTEX
  5
F64
  8
0
 10
28.5339388471047783
 20
88.0432951917902358
 30
0.0
 42
0.4142135623730951
  0
VERTEX
  5
F65
  8
0
 10
28.0339388471047783
 20
87.5432951917902358
 30
0.0
  0
VERTEX
  5
F66
  8
0
 10
28.0339388471047783
 20
74.5432951917902358
 30
0.0
 42
0.4142135623730951
  0
VERTEX
  5
F67
  8
0
 10
28.5339388471047783
 20
74.0432951917902358
 30
0.0
  0
VERTEX
  5
F68
  8
0
 10
33.296438847101868
 20
74.0432951917902358
 30
0.0
  0
VERTEX
  5
F69
  8
0
 10
41.5339388471047712
 20
74.0432951917902358
 30
0.0
  0
VERTEX
  5
F6A
  8
0
 10
46.2964388471018609
 20
74.0432951917902358
 30
0.0
 42
0.4142135623730951
  0
VERTEX
  5
F6B
  8
0
 10
46.796438847101868
 20
74.5432951917902358
 30
0.0
  0
SEQEND
  5
F6C
  8
0
  0
POLYLINE
  5
540
  8
0
 66
     1
 10
0.0
 20
0.0
 30
0.0
 70
     1
  0
VERTEX
  5
F6D
  8
0
 10
58.9901888471004128
 20
87.5432951917902358
 30
0.0
  0
VERTEX
  5
F6E
  8
0
 10
58.9901888471004128
 20
74.5432951917902358
 30
0.0
 42
0.4142135623730951
  0
VERTEX
  5
F6F
  8
0
 10
59.4901888471004128
 20
74.0432951917902358
 30
0.0
  0
VERTEX
  5
F70
  8
0
 10
72.4901888471004128
 20
74.0432951917902358
 30
0.0
 42
0.4142135623730951
  0
VERTEX
  5
F71
  8
0
 10
72.9901888471004128
 20
74.5432951917902358
 30
0.0
  0
VERTEX
  5
F72
  8
0
 10
72.9901888471004128
 20
87.5432951917902358
 30
0.0
 42
0.4142135623730951
  0
VERTEX
  5
F73
  8
0
 10
72.4901888471004128
 20
88.0432951917902358
 30
0.0
  0
VERTEX
  5
F74
  8
0
 10
59.4901888471004128
 20
88.0432951917902358
 30
0.0
 42
0.4142135623730951
  0
SEQEND
  5
F75
  8
0
  0
POLYLINE
  5
541
  8
0
 66
     1
 10
0.0
 20
0.0
 30
0.0
 70
     1
  0
VERTEX
  5
F76
  8
0
 10
263.7776888470988865
 20
87.5432951917902358
 30
0.0
  0
VERTEX
  5
F77
  8
0
 10
263.7776888470988865
 20
74.5432951917902358
 30
0.0
 42
0.4142135623730951
  0
VERTEX
  5
F78
  8
0
 10
264.2776888470990002
 20
74.0432951917902358
 30
0.0
  0
VERTEX
  5
F79
  8
0
 10
277.2776888470990002
 20
74.0432951917902358
 30
0.0
 42
0.4142135623730951
  0
VERTEX
  5
F7A
  8
0
 10
277.7776888470988865
 20
74.5432951917902358
 30
0.0
  0
VERTEX
  5
F7B
  8
0
 10
277.7776888470988865
 20
87.5432951917902358
 30
0.0
 42
0.4142135623730951
  0
VERTEX
  5
F7C
  8
0
 10
277.2776888470990002
 20
88.0432951917902358
 30
0.0
  0
VERTEX
  5
F7D
  8
0
 10
264.2776888470990002
 20
88.0432951917902358
 30
0.0
 42
0.4142135623730951
  0
SEQEND
  5
F7E
  8
0
  0
POLYLINE
  5
542
  8
0
 66
     1
 10
0.0
 20
0.0
 30
0.0
 70
     1
  0
VERTEX
  5
F7F
  8
0
 10
282.8276888471019106
 20
87.5432951917902358
 30
0.0
  0
VERTEX
  5
F80
  8
0
 10
282.8276888471019106
 20
74.5432951917902358
 30
0.0
 42
0.4142135623730951
  0
VERTEX
  5
F81
  8
0
 10
283.3276888471019106
 20
74.0432951917902358
 30
0.0
  0
VERTEX
  5
F82
  8
0
 10
296.3276888471017969
 20
74.0432951917902358
 30
0.0
 42
0.4142135623730951
  0
VERTEX
  5
F83
  8
0
 10
296.8276888471017969
 20
74.5432951917902358
 30
0.0
  0
VERTEX
  5
F84
  8
0
 10
296.8276888471017969
 20
87.5432951917902358
 30
0.0
 42
0.4142135623730951
  0
VERTEX
  5
F85
  8
0
 10
296.3276888471017969
 20
88.0432951917902358
 30
0.0
  0
VERTEX
  5
F86
  8
0
 10
283.3276888471019106
 20
88.0432951917902358
 30
0.0
 42
0.4142135623730951
  0
SEQEND
  5
F87
  8
0
  0
POLYLINE
  5
543
  8
0
 66
     1
 10
0.0
 20
0.0
 30
0.0
 70
     1
  0
VERTEX
  5
F88
  8
0
 10
313.783938847104821
 20
87.5432951917902358
 30
0.0
  0
VERTEX
  5
F89
  8
0
 10
313.783938847104821
 20
74.5432951917902358
 30
0.0
 42
0.4142135623730951
  0
VERTEX
  5
F8A
  8
0
 10
314.283938847104821
 20
74.0432951917902358
 30
0.0
  0
VERTEX
  5
F8B
  8
0
 10
327.283938847104821
 20
74.0432951917902358
 30
0.0
 42
0.4142135623730951
  0
VERTEX
  5
F8C
  8
0
 10
327.7839388471047073
 20
74.5432951917902358
 30
0.0
  0
VERTEX
  5
F8D
  8
0
 10
327.7839388471047073
 20
87.5432951917902358
 30
0.0
 42
0.4142135623730951
  0
VERTEX
  5
F8E
  8
0
 10
327.283938847104821
 20
88.0432951917902358
 30
0.0
  0
VERTEX
  5
F8F
  8
0
 10
314.283938847104821
 20
88.0432951917902358
 30
0.0
 42
0.4142135623730951
  0
SEQEND
  5
F90
  8
0
  0
POLYLINE
  5
544
  8
0
 66
     1
 10
0.0
 20
0.0
 30
0.0
 70
     1
  0
VERTEX
  5
F91
  8
0
 10
305.3459388471027864
 20
87.5432951917902358
 30
0.0
  0
VERTEX
  5
F92
  8
0
 10
305.3459388471027864
 20
73.5432951917902358
 30
0.0
 42
0.4142135623730951
  0
VERTEX
  5
F93
  8
0
 10
305.8459388471029001
 20
73.0432951917902358
 30
0.0
  0
VERTEX
  5
F94
  8
0
 10
311.8459388471027864
 20
73.0432951917902358
 30
0.0
 42
0.4142135623730951
  0
VERTEX
  5
F95
  8
0
 10
312.3459388471029001
 20
73.5432951917902358
 30
0.0
  0
VERTEX
  5
F96
  8
0
 10
312.3459388471029001
 20
87.5432951917902358
 30
0.0
 42
0.4142135623730951
  0
VERTEX
  5
F97
  8
0
 10
311.8459388471027864
 20
88.0432951917902358
 30
0.0
  0
VERTEX
  5
F98
  8
0
 10
305.8459388471029001
 20
88.0432951917902358
 30
0.0
 42
0.4142135623730951
  0
SEQEND
  5
F99
  8
0
  0
POLYLINE
  5
545
  8
0
 66
     1
 10
0.0
 20
0.0
 30
0.0
 70
     1
  0
VERTEX
  5
F9A
  8
0
 10
329.221938847099409
 20
87.5432951917902358
 30
0.0
  0
VERTEX
  5
F9B
  8
0
 10
329.221938847099409
 20
73.5432951917902358
 30
0.0
 42
0.4142135623730951
  0
VERTEX
  5
F9C
  8
0
 10
329.721938847099409
 20
73.0432951917902358
 30
0.0
  0
VERTEX
  5
F9D
  8
0
 10
335.721938847099409
 20
73.0432951917902358
 30
0.0
 42
0.4142135623730951
  0
VERTEX
  5
F9E
  8
0
 10
336.221938847099409
 20
73.5432951917902358
 30
0.0
  0
VERTEX
  5
F9F
  8
0
 10
336.221938847099409
 20
87.5432951917902358
 30
0.0
 42
0.4142135623730951
  0
VERTEX
  5
FA0
  8
0
 10
335.721938847099409
 20
88.0432951917902358
 30
0.0
  0
VERTEX
  5
FA1
  8
0
 10
329.721938847099409
 20
88.0432951917902358
 30
0.0
 42
0.4142135623730951
  0
SEQEND
  5
FA2
  8
0
  0
POLYLINE
  5
546
  8
0
 66
     1
 10
0.0
 20
0.0
 30
0.0
 70
     1
  0
VERTEX
  5
FA3
  8
0
 10
32.796438847101868
 20
68.4932951917909634
 30
0.0
  0
VERTEX
  5
FA4
  8
0
 10
32.796438847101868
 20
55.4932951917909705
 30
0.0
 42
0.4142135623730951
  0
VERTEX
  5
FA5
  8
0
 10
33.296438847101868
 20
54.9932951917909705
 30
0.0
  0
VERTEX
  5
FA6
  8
0
 10
46.2964388471018609
 20
54.9932951917909705
 30
0.0
 42
0.4142135623730951
  0
VERTEX
  5
FA7
  8
0
 10
46.796438847101868
 20
55.4932951917909705
 30
0.0
  0
VERTEX
  5
FA8
  8
0
 10
46.796438847101868
 20
68.4932951917909634
 30
0.0
 42
0.4142135623730784
  0
VERTEX
  5
FA9
  8
0
 10
46.2964388471018609
 20
68.9932951917909634
 30
0.0
  0
VERTEX
  5
FAA
  8
0
 10
33.296438847101868
 20
68.9932951917909634
 30
0.0
 42
0.4142135623730951
  0
SEQEND
  5
FAB
  8
0
  0
POLYLINE
  5
547
  8
0
 66
     1
 10
0.0
 20
0.0
 30
0.0
 70
     1
  0
VERTEX
  5
FAC
  8
0
 10
24.3584388470999507
 20
68.4932951917909634
 30
0.0
  0
VERTEX
  5
FAD
  8
0
 10
24.3584388470999507
 20
54.4932951917909705
 30
0.0
 42
0.4142135623730951
  0
VERTEX
  5
FAE
  8
0
 10
24.8584388470999507
 20
53.9932951917909705
 30
0.0
  0
VERTEX
  5
FAF
  8
0
 10
30.8584388470999507
 20
53.9932951917909705
 30
0.0
 42
0.4142135623730951
  0
VERTEX
  5
FB0
  8
0
 10
31.3584388470999507
 20
54.4932951917909705
 30
0.0
  0
VERTEX
  5
FB1
  8
0
 10
31.3584388470999507
 20
68.4932951917909634
 30
0.0
 42
0.4142135623730951
  0
VERTEX
  5
FB2
  8
0
 10
30.8584388470999507
 20
68.9932951917909634
 30
0.0
  0
VERTEX
  5
FB3
  8
0
 10
24.8584388470999507
 20
68.9932951917909634
 30
0.0
 42
0.4142135623730951
  0
SEQEND
  5
FB4
  8
0
  0
POLYLINE
  5
548
  8
0
 66
     1
 10
0.0
 20
0.0
 30
0.0
 70
     1
  0
VERTEX
  5
FB5
  8
0
 10
48.2344388471037817
 20
68.4932951917909634
 30
0.0
  0
VERTEX
  5
FB6
  8
0
 10
48.2344388471037817
 20
54.4932951917909705
 30
0.0
 42
0.4142135623730951
  0
VERTEX
  5
FB7
  8
0
 10
48.7344388471037888
 20
53.9932951917909705
 30
0.0
  0
VERTEX
  5
FB8
  8
0
 10
54.7344388471037888
 20
53.9932951917909705
 30
0.0
 42
0.4142135623730951
  0
VERTEX
  5
FB9
  8
0
 10
55.2344388471037888
 20
54.4932951917909705
 30
0.0
  0
VERTEX
  5
FBA
  8
0
 10
55.2344388471037888
 20
68.4932951917909634
 30
0.0
 42
0.4142135623730951
  0
VERTEX
  5
FBB
  8
0
 10
54.7344388471037888
 20
68.9932951917909634
 30
0.0
  0
VERTEX
  5
FBC
  8
0
 10
48.7344388471037888
 20
68.9932951917909634
 30
0.0
 42
0.4142135623730951
  0
SEQEND
  5
FBD
  8
0
  0
POLYLINE
  5
549
  8
0
 66
     1
 10
0.0
 20
0.0
 30
0.0
 70
     1
  0
VERTEX
  5
FBE
  8
0
 10
63.7526888471047783
 20
68.4932951917909634
 30
0.0
  0
VERTEX
  5
FBF
  8
0
 10
63.7526888471047783
 20
55.4932951917909705
 30
0.0
 42
0.4142135623730951
  0
VERTEX
  5
FC0
  8
0
 10
64.2526888471047783
 20
54.9932951917909705
 30
0.0
  0
VERTEX
  5
FC1
  8
0
 10
77.2526888471047783
 20
54.9932951917909705
 30
0.0
 42
0.4142135623730951
  0
VERTEX
  5
FC2
  8
0
 10
77.7526888471047641
 20
55.4932951917909705
 30
0.0
  0
VERTEX
  5
FC3
  8
0
 10
77.7526888471047641
 20
68.4932951917909634
 30
0.0
 42
0.4142135623730951
  0
VERTEX
  5
FC4
  8
0
 10
77.2526888471047783
 20
68.9932951917909634
 30
0.0
  0
VERTEX
  5
FC5
  8
0
 10
64.2526888471047783
 20
68.9932951917909634
 30
0.0
 42
0.4142135623730951
  0
SEQEND
  5
FC6
  8
0
  0
POLYLINE
  5
54A
  8
0
 66
     1
 10
0.0
 20
0.0
 30
0.0
 70
     1
  0
VERTEX
  5
FC7
  8
0
 10
254.2526888471047926
 20
68.4932951917909634
 30
0.0
  0
VERTEX
  5
FC8
  8
0
 10
254.2526888471047926
 20
55.4932951917909705
 30
0.0
 42
0.4142135623730951
  0
VERTEX
  5
FC9
  8
0
 10
254.7526888471047926
 20
54.9932951917909705
 30
0.0
  0
VERTEX
  5
FCA
  8
0
 10
267.752688847104821
 20
54.9932951917909705
 30
0.0
 42
0.4142135623730951
  0
VERTEX
  5
FCB
  8
0
 10
268.252688847104821
 20
55.4932951917909705
 30
0.0
  0
VERTEX
  5
FCC
  8
0
 10
268.252688847104821
 20
68.4932951917909634
 30
0.0
 42
0.4142135623730951
  0
VERTEX
  5
FCD
  8
0
 10
267.752688847104821
 20
68.9932951917909634
 30
0.0
  0
VERTEX
  5
FCE
  8
0
 10
254.7526888471047926
 20
68.9932951917909634
 30
0.0
 42
0.4142135623730951
  0
SEQEND
  5
FCF
  8
0
  0
POLYLINE
  5
54B
  8
0
 66
     1
 10
0.0
 20
0.0
 30
0.0
 70
     1
  0
VERTEX
  5
FD0
  8
0
 10
273.3026888471003986
 20
68.4932951917909634
 30
0.0
  0
VERTEX
  5
FD1
  8
0
 10
273.3026888471003986
 20
55.4932951917909705
 30
0.0
 42
0.4142135623730951
  0
VERTEX
  5
FD2
  8
0
 10
273.8026888471003986
 20
54.9932951917909705
 30
0.0
  0
VERTEX
  5
FD3
  8
0
 10
286.8026888471003986
 20
54.9932951917909705
 30
0.0
 42
0.4142135623730951
  0
VERTEX
  5
FD4
  8
0
 10
287.3026888471003986
 20
55.4932951917909705
 30
0.0
  0
VERTEX
  5
FD5
  8
0
 10
287.3026888471003986
 20
68.4932951917909634
 30
0.0
 42
0.4142135623730951
  0
VERTEX
  5
FD6
  8
0
 10
286.8026888471003986
 20
68.9932951917909634
 30
0.0
  0
VERTEX
  5
FD7
  8
0
 10
273.8026888471003986
 20
68.9932951917909634
 30
0.0
 42
0.4142135623730951
  0
SEQEND
  5
FD8
  8
0
  0
POLYLINE
  5
54C
  8
0
 66
     1
 10
0.0
 20
0.0
 30
0.0
 70
     1
  0
VERTEX
  5
FD9
  8
0
 10
299.4964388470990002
 20
68.4932951917909634
 30
0.0
  0
VERTEX
  5
FDA
  8
0
 10
299.4964388470990002
 20
55.4932951917909705
 30
0.0
 42
0.4142135623730951
  0
VERTEX
  5
FDB
  8
0
 10
299.9964388470988865
 20
54.9932951917909705
 30
0.0
  0
VERTEX
  5
FDC
  8
0
 10
312.9964388470988865
 20
54.9932951917909705
 30
0.0
 42
0.4142135623730951
  0
VERTEX
  5
FDD
  8
0
 10
313.4964388470990002
 20
55.4932951917909705
 30
0.0
  0
VERTEX
  5
FDE
  8
0
 10
313.4964388470990002
 20
68.4932951917909634
 30
0.0
 42
0.4142135623730951
  0
VERTEX
  5
FDF
  8
0
 10
312.9964388470988865
 20
68.9932951917909634
 30
0.0
  0
VERTEX
  5
FE0
  8
0
 10
299.9964388470988865
 20
68.9932951917909634
 30
0.0
 42
0.4142135623730951
  0
SEQEND
  5
FE1
  8
0
  0
POLYLINE
  5
54D
  8
0
 66
     1
 10
0.0
 20
0.0
 30
0.0
 70
     1
  0
VERTEX
  5
FE2
  8
0
 10
330.4526888471019106
 20
63.7307951917902429
 30
0.0
  0
VERTEX
  5
FE3
  8
0
 10
330.4526888471019106
 20
50.7307951917902429
 30
0.0
 42
0.4142135623730951
  0
VERTEX
  5
FE4
  8
0
 10
330.9526888471017969
 20
50.2307951917902429
 30
0.0
  0
VERTEX
  5
FE5
  8
0
 10
343.9526888471017969
 20
50.2307951917902429
 30
0.0
 42
0.4142135623730951
  0
VERTEX
  5
FE6
  8
0
 10
344.4526888471019106
 20
50.7307951917902429
 30
0.0
  0
VERTEX
  5
FE7
  8
0
 10
344.4526888471019106
 20
63.7307951917902429
 30
0.0
 42
0.4142135623730951
  0
VERTEX
  5
FE8
  8
0
 10
343.9526888471017969
 20
64.2307951917902358
 30
0.0
  0
VERTEX
  5
FE9
  8
0
 10
330.9526888471017969
 20
64.2307951917902358
 30
0.0
 42
0.4142135623730951
  0
SEQEND
  5
FEA
  8
0
  0
POLYLINE
  5
54E
  8
0
 66
     1
 10
0.0
 20
0.0
 30
0.0
 70
     1
  0
VERTEX
  5
FEB
  8
0
 10
23.2714388471004092
 20
49.4432951917916981
 30
0.0
  0
VERTEX
  5
FEC
  8
0
 10
23.2714388471004092
 20
36.4432951917916981
 30
0.0
 42
0.4142135623730951
  0
VERTEX
  5
FED
  8
0
 10
23.7714388471004092
 20
35.9432951917916981
 30
0.0
  0
VERTEX
  5
FEE
  8
0
 10
36.7714388471004128
 20
35.9432951917916981
 30
0.0
 42
0.4142135623730951
  0
VERTEX
  5
FEF
  8
0
 10
37.2714388471004128
 20
36.4432951917916981
 30
0.0
  0
VERTEX
  5
FF0
  8
0
 10
37.2714388471004128
 20
49.4432951917916981
 30
0.0
 42
0.4142135623730951
  0
VERTEX
  5
FF1
  8
0
 10
36.7714388471004128
 20
49.9432951917916981
 30
0.0
  0
VERTEX
  5
FF2
  8
0
 10
23.7714388471004092
 20
49.9432951917916981
 30
0.0
 42
0.4142135623730951
  0
SEQEND
  5
FF3
  8
0
  0
POLYLINE
  5
54F
  8
0
 66
     1
 10
0.0
 20
0.0
 30
0.0
 70
     1
  0
VERTEX
  5
FF4
  8
0
 10
47.0839388471004128
 20
49.4432951917916981
 30
0.0
  0
VERTEX
  5
FF5
  8
0
 10
47.0839388471004128
 20
36.4432951917916981
 30
0.0
 42
0.4142135623730951
  0
VERTEX
  5
FF6
  8
0
 10
47.5839388471004128
 20
35.9432951917916981
 30
0.0
  0
VERTEX
  5
FF7
  8
0
 10
60.5839388471004128
 20
35.9432951917916981
 30
0.0
 42
0.4142135623730951
  0
VERTEX
  5
FF8
  8
0
 10
61.0839388471004128
 20
36.4432951917916981
 30
0.0
  0
VERTEX
  5
FF9
  8
0
 10
61.0839388471004128
 20
49.4432951917916981
 30
0.0
 42
0.4142135623730951
  0
VERTEX
  5
FFA
  8
0
 10
60.5839388471004128
 20
49.9432951917916981
 30
0.0
  0
VERTEX
  5
FFB
  8
0
 10
47.5839388471004128
 20
49.9432951917916981
 30
0.0
 42
0.4142135623730951
  0
SEQEND
  5
FFC
  8
0
  0
POLYLINE
  5
550
  8
0
 66
     1
 10
0.0
 20
0.0
 30
0.0
 70
     1
  0
VERTEX
  5
FFD
  8
0
 10
261.3964388471003986
 20
49.4432951917916981
 30
0.0
  0
VERTEX
  5
FFE
  8
0
 10
261.3964388471003986
 20
36.4432951917916981
 30
0.0
 42
0.4142135623730951
  0
VERTEX
  5
FFF
  8
0
 10
261.8964388471003986
 20
35.9432951917916981
 30
0.0
  0
VERTEX
  5
1000
  8
0
 10
274.8964388471003986
 20
35.9432951917916981
 30
0.0
 42
0.4142135623730951
  0
VERTEX
  5
1001
  8
0
 10
275.3964388471003986
 20
36.4432951917916981
 30
0.0
  0
VERTEX
  5
1002
  8
0
 10
275.3964388471003986
 20
49.4432951917916981
 30
0.0
 42
0.4142135623730951
  0
VERTEX
  5
1003
  8
0
 10
274.8964388471003986
 20
49.9432951917916981
 30
0.0
  0
VERTEX
  5
1004
  8
0
 10
261.8964388471003986
 20
49.9432951917916981
 30
0.0
 42
0.4142135623730951
  0
SEQEND
  5
1005
  8
0
  0
POLYLINE
  5
551
  8
0
 66
     1
 10
0.0
 20
0.0
 30
0.0
 70
     1
  0
VERTEX
  5
1006
  8
0
 10
285.2089388471003986
 20
49.4432951917916981
 30
0.0
  0
VERTEX
  5
1007
  8
0
 10
285.2089388471003986
 20
36.4432951917916981
 30
0.0
 42
0.4142135623730951
  0
VERTEX
  5
1008
  8
0
 10
285.7089388471003986
 20
35.9432951917916981
 30
0.0
  0
VERTEX
  5
1009
  8
0
 10
298.7089388471003986
 20
35.9432951917916981
 30
0.0
 42
0.4142135623730951
  0
VERTEX
  5
100A
  8
0
 10
299.2089388471003986
 20
36.4432951917916981
 30
0.0
  0
VERTEX
  5
100B
  8
0
 10
299.2089388471003986
 20
49.4432951917916981
 30
0.0
 42
0.4142135623730951
  0
VERTEX
  5
100C
  8
0
 10
298.7089388471003986
 20
49.9432951917916981
 30
0.0
  0
VERTEX
  5
100D
  8
0
 10
285.7089388471003986
 20
49.9432951917916981
 30
0.0
 42
0.4142135623730951
  0
SEQEND
  5
100E
  8
0
  0
POLYLINE
  5
552
  8
0
 66
     1
 10
0.0
 20
0.0
 30
0.0
 70
     1
  0
VERTEX
  5
100F
  8
0
 10
311.4026888470990002
 20
44.6807951917909705
 30
0.0
  0
VERTEX
  5
1010
  8
0
 10
311.4026888470990002
 20
31.6807951917909705
 30
0.0
 42
0.4142135623730951
  0
VERTEX
  5
1011
  8
0
 10
311.9026888470988865
 20
31.1807951917909705
 30
0.0
  0
VERTEX
  5
1012
  8
0
 10
324.9026888470988865
 20
31.1807951917909705
 30
0.0
 42
0.4142135623730951
  0
VERTEX
  5
1013
  8
0
 10
325.4026888470988865
 20
31.6807951917909705
 30
0.0
  0
VERTEX
  5
1014
  8
0
 10
325.4026888470988865
 20
44.6807951917909705
 30
0.0
 42
0.4142135623730951
  0
VERTEX
  5
1015
  8
0
 10
324.9026888470988865
 20
45.1807951917909705
 30
0.0
  0
VERTEX
  5
1016
  8
0
 10
311.9026888470988865
 20
45.1807951917909705
 30
0.0
 42
0.4142135623730951
  0
SEQEND
  5
1017
  8
0
  0
POLYLINE
  5
553
  8
0
 66
     1
 10
0.0
 20
0.0
 30
0.0
 70
     1
  0
VERTEX
  5
1018
  8
0
 10
330.4526888471019106
 20
44.6807951917909705
 30
0.0
  0
VERTEX
  5
1019
  8
0
 10
330.4526888471019106
 20
31.6807951917909705
 30
0.0
 42
0.4142135623730951
  0
VERTEX
  5
101A
  8
0
 10
330.9526888471017969
 20
31.1807951917909705
 30
0.0
  0
VERTEX
  5
101B
  8
0
 10
343.9526888471017969
 20
31.1807951917909705
 30
0.0
 42
0.4142135623730951
  0
VERTEX
  5
101C
  8
0
 10
344.4526888471019106
 20
31.6807951917909705
 30
0.0
  0
VERTEX
  5
101D
  8
0
 10
344.4526888471019106
 20
44.6807951917909705
 30
0.0
 42
0.4142135623730951
  0
VERTEX
  5
101E
  8
0
 10
343.9526888471017969
 20
45.1807951917909705
 30
0.0
  0
VERTEX
  5
101F
  8
0
 10
330.9526888471017969
 20
45.1807951917909705
 30
0.0
 42
0.4142135623730951
  0
SEQEND
  5
1020
  8
0
  0
POLYLINE
  5
554
  8
0
 66
     1
 10
0.0
 20
0.0
 30
0.0
 70
     1
  0
VERTEX
  5
1021
  8
0
 10
349.502688847104821
 20
44.6807951917909705
 30
0.0
  0
VERTEX
  5
1022
  8
0
 10
349.502688847104821
 20
31.6807951917909705
 30
0.0
 42
0.4142135623730951
  0
VERTEX
  5
1023
  8
0
 10
350.002688847104821
 20
31.1807951917909705
 30
0.0
  0
VERTEX
  5
1024
  8
0
 10
363.002688847104821
 20
31.1807951917909705
 30
0.0
 42
0.4142135623730951
  0
VERTEX
  5
1025
  8
0
 10
363.502688847104821
 20
31.6807951917909705
 30
0.0
  0
VERTEX
  5
1026
  8
0
 10
363.502688847104821
 20
44.6807951917909705
 30
0.0
 42
0.4142135623730951
  0
VERTEX
  5
1027
  8
0
 10
363.002688847104821
 20
45.1807951917909705
 30
0.0
  0
VERTEX
  5
1028
  8
0
 10
350.002688847104821
 20
45.1807951917909705
 30
0.0
 42
0.4142135623730951
  0
SEQEND
  5
1029
  8
0
  0
POLYLINE
  5
555
  8
0
  6
CONTINUOUS
 66
     1
 10
0.0
 20
0.0
 30
0.0
  0
VERTEX
  5
102A
  8
0
  6
CONTINUOUS
 10
143.9758671403041888
 20
35.0697592928228588
 30
0.0
 42
-0.0003873760897556
  0
VERTEX
  5
102B
  8
0
  6
CONTINUOUS
 10
143.9757066474712985
 20
35.0690013463828691
 30
0.0
  0
VERTEX
  5
102C
  8
0
  6
CONTINUOUS
 10
144.1836184814756052
 20
36.0471490930941982
 30
0.0
  0
SEQEND
  5
102D
  8
0
  6
CONTINUOUS
  0
POLYLINE
  5
556
  8
0
  6
CONTINUOUS
 66
     1
 10
0.0
 20
0.0
 30
0.0
  0
VERTEX
  5
102E
  8
0
  6
CONTINUOUS
 10
137.9296145379202869
 20
37.8876487925228176
 30
0.0
 42
0.4142135623730951
  0
VERTEX
  5
102F
  8
0
  6
CONTINUOUS
 10
137.3365848921467034
 20
37.5025308375663116
 30
0.0
  0
VERTEX
  5
1030
  8
0
  6
CONTINUOUS
 10
137.1286728471031893
 20
36.5243831917906974
 30
0.0
  0
VERTEX
  5
1031
  8
0
  6
CONTINUOUS
 10
134.2179098471033001
 20
22.8303161917903417
 30
0.0
  0
SEQEND
  5
1032
  8
0
  6
CONTINUOUS
  0
POLYLINE
  5
557
  8
0
  6
CONTINUOUS
 66
     1
 10
0.0
 20
0.0
 30
0.0
  0
VERTEX
  5
1033
  8
0
  6
CONTINUOUS
 10
120.4442485379195062
 20
41.6042787925254274
 30
0.0
 42
-0.4142135623730787
  0
VERTEX
  5
1034
  8
0
  6
CONTINUOUS
 10
120.8293664928797
 20
41.0112491467481632
 30
0.0
  0
VERTEX
  5
1035
  8
0
  6
CONTINUOUS
 10
120.621453847103993
 20
40.0331001917913127
 30
0.0
  0
VERTEX
  5
1036
  8
0
  6
CONTINUOUS
 10
117.7106908471041038
 20
26.3390341917912885
 30
0.0
  0
SEQEND
  5
1037
  8
0
  6
CONTINUOUS
  0
POLYLINE
  5
558
  8
0
  6
CONTINUOUS
 66
     1
 10
0.0
 20
0.0
 30
0.0
 70
     1
  0
VERTEX
  5
1038
  8
0
  6
CONTINUOUS
 10
113.9823328921419971
 20
42.4666308375673509
 30
0.0
  0
VERTEX
  5
1039
  8
0
  6
CONTINUOUS
 10
113.7744208470984972
 20
41.4884821917914124
 30
0.0
  0
SEQEND
  5
103A
  8
0
  6
CONTINUOUS
  0
POLYLINE
  5
559
  8
0
  6
CONTINUOUS
 66
     1
 10
0.0
 20
0.0
 30
0.0
  0
VERTEX
  5
103B
  8
0
  6
CONTINUOUS
 10
183.518904847101112
 20
35.8471171917919165
 30
0.0
 42
0.4142135623730951
  0
VERTEX
  5
103C
  8
0
  6
CONTINUOUS
 10
183.133786892140904
 20
35.2540875460146381
 30
0.0
  0
VERTEX
  5
103D
  8
0
  6
CONTINUOUS
 10
183.3416988471007869
 20
34.2759401917902906
 30
0.0
  0
VERTEX
  5
103E
  8
0
  6
CONTINUOUS
 10
186.2524628471009862
 20
20.5818731917899314
 30
0.0
  0
SEQEND
  5
103F
  8
0
  6
CONTINUOUS
  0
POLYLINE
  5
55A
  8
0
  6
CONTINUOUS
 66
     1
 10
0.0
 20
0.0
 30
0.0
  0
VERTEX
  5
1040
  8
0
  6
CONTINUOUS
 10
189.387790847097591
 20
37.0945871917903531
 30
0.0
 42
-0.4142135623730951
  0
VERTEX
  5
1041
  8
0
  6
CONTINUOUS
 10
189.9808204928785926
 20
36.7094692368338329
 30
0.0
  0
VERTEX
  5
1042
  8
0
  6
CONTINUOUS
 10
190.1886212410981898
 20
35.7318401087906423
 30
0.0
 42
-0.0002648526862323
  0
VERTEX
  5
1043
  8
0
  6
CONTINUOUS
 10
190.1887316474685008
 20
35.7313220371981188
 30
0.0
  0
SEQEND
  5
1044
  8
0
  6
CONTINUOUS
  0
POLYLINE
  5
55B
  8
0
  6
CONTINUOUS
 66
     1
 10
0.0
 20
0.0
 30
0.0
  0
VERTEX
  5
1045
  8
0
  6
CONTINUOUS
 10
206.8731568470984996
 20
40.811217191789332
 30
0.0
 42
0.4142135623730951
  0
VERTEX
  5
1046
  8
0
  6
CONTINUOUS
 10
206.488038892145596
 20
40.2181875460156917
 30
0.0
  0
VERTEX
  5
1047
  8
0
  6
CONTINUOUS
 10
206.695950847098203
 20
39.2400391917910127
 30
0.0
  0
VERTEX
  5
1048
  8
0
  6
CONTINUOUS
 10
209.6067148470984023
 20
25.5459731917909814
 30
0.0
  0
SEQEND
  5
1049
  8
0
  6
CONTINUOUS
  0
ENDSEC
  0
EOF
